<svg width="264" height="81" viewBox="0 0 264 81" fill="none" xmlns="http://www.w3.org/2000/svg">
<path d="M143.541 22.8248H106.883V59.1328H143.541V22.8248Z" fill="white"/>
<path d="M196.076 27.9655H196.811L199.161 33.8357L201.529 27.9655H202.264L199.478 34.6697H198.843L196.076 27.9655Z" fill="white"/>
<path d="M203.302 27.9655H204.9C205.534 27.9655 206.242 27.9747 206.805 28.2923C207.486 28.6807 207.849 29.3707 207.849 30.1508C207.849 31.2485 206.959 32.1381 205.871 32.1651L207.759 34.6689H206.923L204.646 31.6301H204.846C205.317 31.6301 205.863 31.647 206.307 31.4482C206.861 31.1946 207.178 30.6858 207.178 30.0868C207.178 29.6243 206.933 29.1525 206.552 28.8888C206.107 28.572 205.563 28.572 205.036 28.572H203.975V34.6689H203.303V27.9655H203.302Z" fill="white"/>
<path d="M209.74 27.9663H209.069V34.6705H209.74V27.9663Z" fill="white"/>
<path d="M214.369 32.7826C214.333 33.3091 214.359 33.6908 214.006 34.1246C213.653 34.5703 213.126 34.7876 212.574 34.7876C211.593 34.7876 210.813 34.0522 210.786 33.0817H211.449C211.493 33.7161 212.002 34.1432 212.638 34.1432C213.082 34.1432 213.463 33.8888 213.617 33.4717C213.708 33.2081 213.699 32.8635 213.699 32.583V27.9638H214.37V32.7826H214.369Z" fill="white"/>
<path d="M216.006 27.9655H219.671V28.5737H216.677V30.9874H219.571V31.5956H216.677V34.0623H219.671V34.6697H216.006V27.9655Z" fill="white"/>
<path d="M197.346 37.588V41.6612C197.346 42.1422 197.392 42.6511 197.655 43.0673C197.937 43.5129 198.435 43.7665 198.961 43.7665C199.433 43.7665 199.913 43.5491 200.195 43.1591C200.522 42.7235 200.568 42.1877 200.568 41.6612V37.588H201.239V41.6612C201.239 42.3419 201.176 42.9956 200.74 43.5567C200.323 44.1111 199.65 44.411 198.961 44.411C198.291 44.411 197.637 44.1296 197.21 43.6123C196.748 43.0395 196.675 42.368 196.675 41.6612V37.588H197.346Z" fill="white"/>
<path d="M202.876 37.588H203.784L207.54 43.1498V37.588H208.211V44.2922H207.54L203.547 38.395V44.2922H202.876V37.588Z" fill="white"/>
<path d="M210.522 37.588H209.85V44.2922H210.522V37.588Z" fill="white"/>
<path d="M211.557 37.588H212.292L214.642 43.4582L217.01 37.588H217.745L214.959 44.2922H214.324L211.557 37.588Z" fill="white"/>
<path d="M218.784 37.588H222.45V38.1962H219.455V40.6098H222.349V41.2172H219.455V43.6839H222.45V44.2922H218.784V37.588Z" fill="white"/>
<path d="M223.905 37.588H225.503C226.137 37.588 226.845 37.5972 227.407 37.9148C228.088 38.3032 228.451 38.9932 228.451 39.7733C228.451 40.871 227.562 41.7606 226.473 41.7876L228.361 44.2922H227.525L225.248 41.2535H225.448C225.92 41.2535 226.465 41.2703 226.909 41.0715C227.463 40.8179 227.781 40.3091 227.781 39.7101C227.781 39.2476 227.535 38.7758 227.154 38.5121C226.709 38.1954 226.165 38.1954 225.638 38.1954H224.577V44.2922H223.905V37.588Z" fill="white"/>
<path d="M229.898 42.4152C229.915 43.1507 230.488 43.7673 231.241 43.7673C232.003 43.7673 232.629 43.213 232.629 42.443C232.629 42.0799 232.448 41.7168 232.166 41.491C231.857 41.2366 231.513 41.1456 231.132 41.0454C230.714 40.9359 230.288 40.828 229.952 40.5374C229.58 40.2206 229.391 39.7657 229.391 39.2855C229.391 38.2063 230.243 37.4801 231.295 37.4801C232.312 37.4801 233.147 38.2695 233.137 39.2956H232.439C232.393 38.6149 231.903 38.1246 231.214 38.1246C230.56 38.1246 230.061 38.6612 230.061 39.2956C230.061 40.1027 230.733 40.2939 231.385 40.475C231.866 40.6115 232.283 40.6924 232.674 41.0471C233.073 41.3925 233.3 41.9173 233.3 42.454C233.3 43.5601 232.348 44.4135 231.258 44.4135C230.115 44.4135 229.171 43.5879 229.181 42.4177H229.898V42.4152Z" fill="white"/>
<path d="M235.118 37.588H234.446V44.2922H235.118V37.588Z" fill="white"/>
<path d="M237.669 38.1962H236.127V37.588H239.865V38.1962H238.341V44.2922H237.669V38.1962Z" fill="white"/>
<path d="M240.875 37.588H244.54V38.1962H241.546V40.6098H244.44V41.2172H241.546V43.6839H244.54V44.2922H240.875V37.588Z" fill="white"/>
<path d="M246.667 37.588H245.996V44.2922H246.667V37.588Z" fill="white"/>
<path d="M247.676 37.588V38.1954H249.218V44.2922H249.891V38.1954H251.415V37.588H247.676Z" fill="white"/>
<path d="M196.675 47.2104H198.244C198.78 47.2104 199.306 47.2467 199.769 47.5457C200.249 47.8625 200.558 48.4076 200.558 48.988C200.558 49.5685 200.278 50.0048 199.815 50.3317C200.522 50.6207 200.922 51.2475 200.922 52.0183C200.922 52.6266 200.613 53.2264 200.096 53.5516C199.505 53.9248 198.925 53.9062 198.254 53.9147H196.676L196.675 47.2104ZM198.072 50.0773C198.499 50.0773 198.962 50.0866 199.343 49.8768C199.669 49.7041 199.886 49.3149 199.886 48.9425C199.886 48.5794 199.66 48.2071 199.35 48.0158C199.006 47.8077 198.525 47.7976 198.126 47.817H197.346V50.0765L198.072 50.0773ZM198.172 53.3064C198.625 53.3157 199.179 53.3157 199.587 53.1076C199.968 52.9071 200.249 52.453 200.24 52.0267C200.249 51.4564 199.923 51.0023 199.406 50.8203C198.989 50.6754 198.498 50.6847 198.053 50.6847H197.346V53.3056L198.172 53.3064Z" fill="white"/>
<path d="M202.141 47.2104H203.738C204.372 47.2104 205.081 47.2197 205.644 47.5373C206.324 47.9257 206.687 48.6156 206.687 49.3957C206.687 50.4935 205.797 51.3831 204.709 51.4101L206.597 53.9147H205.761L203.484 50.8759H203.684C204.156 50.8759 204.701 50.8928 205.146 50.694C205.698 50.4404 206.017 49.9315 206.017 49.3326C206.017 48.8701 205.772 48.3983 205.39 48.1346C204.945 47.8178 204.401 47.8178 203.874 47.8178H202.813V53.9147H202.141V47.2104H202.141Z" fill="white"/>
<path d="M208.579 47.2104V51.2837C208.579 51.7647 208.624 52.2736 208.887 52.6897C209.169 53.1354 209.667 53.389 210.194 53.389C210.665 53.389 211.146 53.1716 211.428 52.7807C211.755 52.3452 211.8 51.8102 211.8 51.2837V47.2104H212.472V51.2837C212.472 51.9644 212.408 52.6181 211.972 53.1792C211.555 53.7335 210.883 54.0326 210.194 54.0326C209.522 54.0326 208.869 53.7521 208.442 53.2348C207.98 52.6619 207.907 51.9905 207.907 51.2837V47.2104H208.579Z" fill="white"/>
<path d="M214.335 52.0368C214.353 52.7723 214.926 53.389 215.677 53.389C216.44 53.389 217.065 52.8346 217.065 52.0646C217.065 51.7015 216.884 51.3384 216.603 51.1127C216.295 50.8582 215.95 50.7673 215.569 50.667C215.151 50.5575 214.725 50.4497 214.39 50.159C214.017 49.8414 213.828 49.3873 213.828 48.9071C213.828 47.8279 214.68 47.1018 215.733 47.1018C216.75 47.1018 217.584 47.8911 217.574 48.9172H216.875C216.83 48.2365 216.34 47.7462 215.651 47.7462C214.997 47.7462 214.499 48.2829 214.499 48.9172C214.499 49.7243 215.17 49.9147 215.823 50.0967C216.304 50.2331 216.721 50.314 217.112 50.6687C217.51 51.0141 217.738 51.5389 217.738 52.0756C217.738 53.1817 216.785 54.0351 215.696 54.0351C214.552 54.0351 213.609 53.2095 213.617 52.0394H214.335V52.0368Z" fill="white"/>
<path d="M219.111 52.0368C219.129 52.7723 219.701 53.389 220.454 53.389C221.216 53.389 221.842 52.8346 221.842 52.0646C221.842 51.7015 221.66 51.3384 221.379 51.1127C221.07 50.8582 220.726 50.7673 220.345 50.667C219.927 50.5575 219.501 50.4497 219.166 50.159C218.793 49.8414 218.604 49.3873 218.604 48.9071C218.604 47.8279 219.456 47.1018 220.509 47.1018C221.525 47.1018 222.36 47.8911 222.35 48.9172H221.652C221.606 48.2365 221.116 47.7462 220.427 47.7462C219.773 47.7462 219.274 48.2829 219.274 48.9172C219.274 49.7243 219.946 49.9147 220.599 50.0967C221.08 50.2331 221.497 50.314 221.888 50.6687C222.286 51.0141 222.514 51.5389 222.514 52.0756C222.514 53.1817 221.561 54.0351 220.471 54.0351C219.328 54.0351 218.385 53.2095 218.394 52.0394H219.111V52.0368Z" fill="white"/>
<path d="M223.659 47.2104H227.325V47.8178H224.331V50.2315H227.225V50.8397H224.331V53.3064H227.325V53.9147H223.659V47.2104Z" fill="white"/>
<path d="M228.781 47.2104H229.452V53.3064H232.229V53.9147H228.781V47.2104Z" fill="white"/>
<path d="M188.933 22.8366H152.636V59.1328H188.933V22.8366Z" fill="white"/>
<path d="M185.094 40.1903C186.332 39.5938 186.951 38.2872 186.951 36.957C186.951 35.374 185.965 33.861 184.565 33.1499C183.144 32.4397 181.585 32.508 180.048 32.508L176.111 32.5147V35.5551L176.109 49.4556H181.218C182.846 49.4101 184.565 49.3191 185.919 48.3326C187.227 47.3461 187.984 45.9468 187.984 44.2956C187.984 42.3689 186.951 40.7867 185.094 40.1903ZM179.262 35.5551H180.352V35.5576H180.69C181.356 35.5576 182.29 35.5172 182.755 35.7186C183.374 35.9704 183.81 36.5214 183.81 37.2089C183.81 37.8508 183.443 38.4936 182.847 38.7682C182.25 39.0437 181.378 39.0201 180.714 39.0201H180.352V39.0243H179.262V35.5551ZM184.016 45.8094C183.191 46.3604 182.342 46.4059 181.424 46.4059H180.117L179.262 46.405V42.0715H180.117H181.493C182.249 42.0715 183.007 42.0479 183.717 42.416C184.452 42.8288 184.841 43.3335 184.841 44.1591C184.841 44.8684 184.59 45.4194 184.016 45.8094Z" fill="#184183"/>
<path d="M149.215 32.5147L152.636 41.3183V32.5147H149.215Z" fill="#E9530D"/>
<path d="M175.166 32.5215V32.5147H172.023V43.7555C172.009 44.3351 171.945 44.8987 171.683 45.4236C171.257 46.1725 170.47 46.7083 169.544 46.8179C169.513 46.8212 169.481 46.8246 169.448 46.8271C169.364 46.8347 169.279 46.8389 169.193 46.8398C169.109 46.8389 169.026 46.8347 168.944 46.8288C168.913 46.8263 168.884 46.8229 168.855 46.8195C168.024 46.7252 167.304 46.288 166.855 45.6612C166.795 45.571 166.737 45.4767 166.686 45.3781C166.403 44.8305 166.366 44.2273 166.363 43.6233C166.363 43.5727 166.363 43.5222 166.363 43.4725V32.5147H162.876C162.876 32.5147 162.031 32.4903 161.461 33.0084C161.03 33.4001 160.86 34.005 160.86 34.005L157.078 45.0563L152.636 32.5147V41.3183L155.794 49.4488H158.384L163.401 35.7742L163.416 43.085C163.416 44.8499 163.363 46.4067 164.599 47.8052C165.217 48.5036 166.047 49.0908 166.951 49.4581C167.566 49.6957 168.234 49.8389 168.932 49.8675C169.018 49.8709 169.105 49.8726 169.192 49.8726C169.279 49.8726 169.366 49.8709 169.452 49.8675C171.713 49.7757 173.649 48.4834 174.578 46.6426C175.087 45.555 175.165 44.3469 175.165 43.0858L175.166 32.5215Z" fill="#184183"/>
<path d="M126.954 44.7892H129.668V42.0993L126.954 44.7892Z" fill="#B1C1E5"/>
<path d="M121.933 35.8576V37.4456H123.216V44.8482H121.933V46.4354H129.667V44.7892H125.759V37.4456H127.182V35.8576H121.933Z" fill="#033F85"/>
<path d="M118.465 46.0302C119.42 45.2661 119.627 44.4211 119.627 43.1431L119.625 37.4768L120.97 37.4751V35.887L117.022 35.8887V37.4768L117.864 37.4751V43.4118C117.864 44.2442 117.179 44.9164 116.339 44.9181C115.241 44.919 114.817 44.2425 114.817 43.4101V37.4734L115.7 37.4742L115.772 35.8862H111.084L111.013 37.4742H112.269L112.274 43.0117C112.274 44.1574 112.295 44.8179 112.908 45.6578C113.457 46.4135 114.416 46.7799 115.944 46.7766C117.021 46.774 117.859 46.5137 118.465 46.0302Z" fill="#033F85"/>
<path d="M135.52 44.7884C136.609 44.7833 137.103 44.2517 137.106 43.3099C137.108 42.3402 136.45 41.6722 135.516 41.6705L134.499 41.6722L134.501 44.7884H135.52ZM135.387 40.1423C136.257 40.1448 136.744 39.6334 136.744 38.8154C136.748 37.9721 136.196 37.4456 135.385 37.4439L134.501 37.4447V40.1448L135.387 40.1423ZM138.565 41.1212C139.31 41.6334 139.798 42.4742 139.803 43.4876C139.81 45.0765 138.19 46.4362 136.696 46.4337L130.676 46.4345L130.675 44.7884H131.898V37.4447H130.615V35.8576H136.706C138.202 35.8576 139.415 37.0134 139.415 38.4574C139.415 39.1128 139.085 39.8853 138.56 40.363L137.84 40.8078L138.565 41.1212Z" fill="#033F85"/>
<path d="M187.067 67.9819C187.067 67.4023 187.538 66.9314 188.117 66.9314C188.697 66.9314 189.168 67.4023 189.168 67.9819C189.168 68.5615 188.697 69.0324 188.117 69.0324C187.538 69.0324 187.067 68.5615 187.067 67.9819ZM180.843 67.9819C180.843 67.4023 181.314 66.9314 181.893 66.9314C182.479 66.9314 182.951 67.4023 182.951 67.9819C182.951 68.5615 182.48 69.0324 181.893 69.0324C181.314 69.0324 180.843 68.5615 180.843 67.9819ZM174.625 67.9819C174.625 67.4023 175.089 66.9314 175.676 66.9314C176.255 66.9314 176.726 67.4023 176.726 67.9819C176.726 68.5615 176.255 69.0324 175.676 69.0324C175.089 69.0324 174.625 68.5615 174.625 67.9819ZM168.401 67.9819C168.401 67.4023 168.872 66.9314 169.452 66.9314C170.031 66.9314 170.502 67.4023 170.502 67.9819C170.502 68.5615 170.031 69.0324 169.452 69.0324C168.872 69.0324 168.401 68.5615 168.401 67.9819ZM162.176 67.9819C162.176 67.4023 162.647 66.9314 163.227 66.9314C163.813 66.9314 164.277 67.4023 164.277 67.9819C164.277 68.5615 163.813 69.0324 163.227 69.0324C162.647 69.0324 162.176 68.5615 162.176 67.9819ZM155.96 67.9819C155.96 67.4023 156.423 66.9314 157.01 66.9314C157.59 66.9314 158.06 67.4023 158.06 67.9819C158.06 68.5615 157.589 69.0324 157.01 69.0324C156.423 69.0324 155.96 68.5615 155.96 67.9819ZM149.735 67.9819C149.735 67.4023 150.206 66.9314 150.786 66.9314C151.365 66.9314 151.835 67.4023 151.835 67.9819C151.835 68.5615 151.364 69.0324 150.786 69.0324C150.206 69.0324 149.735 68.5615 149.735 67.9819ZM143.511 67.9819C143.511 67.4023 143.982 66.9314 144.562 66.9314C145.149 66.9314 145.62 67.4023 145.62 67.9819C145.62 68.5615 145.149 69.0324 144.562 69.0324C143.982 69.0324 143.511 68.5615 143.511 67.9819ZM137.287 67.9819C137.287 67.4023 137.758 66.9314 138.345 66.9314C138.925 66.9314 139.396 67.4023 139.396 67.9819C139.396 68.5615 138.925 69.0324 138.345 69.0324C137.758 69.0324 137.287 68.5615 137.287 67.9819ZM131.07 67.9819C131.07 67.4023 131.541 66.9314 132.12 66.9314C132.7 66.9314 133.171 67.4023 133.171 67.9819C133.171 68.5615 132.7 69.0324 132.12 69.0324C131.541 69.0324 131.07 68.5615 131.07 67.9819ZM124.846 67.9819C124.846 67.4023 125.317 66.9314 125.896 66.9314C126.476 66.9314 126.947 67.4023 126.947 67.9819C126.947 68.5615 126.476 69.0324 125.896 69.0324C125.317 69.0324 124.846 68.5615 124.846 67.9819ZM118.621 67.9819C118.621 67.4023 119.092 66.9314 119.671 66.9314C120.259 66.9314 120.729 67.4023 120.729 67.9819C120.729 68.5615 120.259 69.0324 119.671 69.0324C119.093 69.0324 118.621 68.5615 118.621 67.9819ZM112.404 67.9819C112.404 67.4023 112.875 66.9314 113.455 66.9314C114.035 66.9314 114.505 67.4023 114.505 67.9819C114.505 68.5615 114.035 69.0324 113.455 69.0324C112.875 69.0324 112.404 68.5615 112.404 67.9819ZM106.18 67.9819C106.18 67.4023 106.65 66.9314 107.23 66.9314C107.81 66.9314 108.281 67.4023 108.281 67.9819C108.281 68.5615 107.81 69.0324 107.23 69.0324C106.65 69.0324 106.18 68.5615 106.18 67.9819ZM99.9555 67.9819C99.9555 67.4023 100.426 66.9314 101.014 66.9314C101.593 66.9314 102.064 67.4023 102.064 67.9819C102.064 68.5615 101.593 69.0324 101.014 69.0324C100.426 69.0324 99.9555 68.5615 99.9555 67.9819ZM93.7382 67.9819C93.7382 67.4023 94.2091 66.9314 94.7887 66.9314C95.3683 66.9314 95.8393 67.4023 95.8393 67.9819C95.8393 68.5615 95.3683 69.0324 94.7887 69.0324C94.2091 69.0324 93.7382 68.5615 93.7382 67.9819ZM87.5142 67.9819C87.5142 67.4023 87.9851 66.9314 88.5647 66.9314C89.1443 66.9314 89.6152 67.4023 89.6152 67.9819C89.6152 68.5615 89.1443 69.0324 88.5647 69.0324C87.9851 69.0324 87.5142 68.5615 87.5142 67.9819ZM81.2901 67.9819C81.2901 67.4023 81.7611 66.9314 82.3407 66.9314C82.9279 66.9314 83.3988 67.4023 83.3988 67.9819C83.3988 68.5615 82.9279 69.0324 82.3407 69.0324C81.7611 69.0324 81.2901 68.5615 81.2901 67.9819ZM75.0653 67.9819C75.0653 67.4023 75.5362 66.9314 76.1234 66.9314C76.703 66.9314 77.1739 67.4023 77.1739 67.9819C77.1739 68.5615 76.703 69.0324 76.1234 69.0324C75.5362 69.0324 75.0653 68.5615 75.0653 67.9819ZM68.8488 67.9819C68.8488 67.4023 69.3198 66.9314 69.8994 66.9314C70.479 66.9314 70.9499 67.4023 70.9499 67.9819C70.9499 68.5615 70.479 69.0324 69.8994 69.0324C69.3198 69.0324 68.8488 68.5615 68.8488 67.9819ZM62.6248 67.9819C62.6248 67.4023 63.0957 66.9314 63.6753 66.9314C64.2549 66.9314 64.7259 67.4023 64.7259 67.9819C64.7259 68.5615 64.2549 69.0324 63.6753 69.0324C63.0957 69.0324 62.6248 68.5615 62.6248 67.9819ZM56.3999 67.9819C56.3999 67.4023 56.8708 66.9314 57.458 66.9314C58.0376 66.9314 58.5086 67.4023 58.5086 67.9819C58.5086 68.5615 58.0376 69.0324 57.458 69.0324C56.8708 69.0324 56.3999 68.5615 56.3999 67.9819ZM50.1835 67.9819C50.1835 67.4023 50.6544 66.9314 51.234 66.9314C51.8136 66.9314 52.2845 67.4023 52.2845 67.9819C52.2845 68.5615 51.8136 69.0324 51.234 69.0324C50.6544 69.0324 50.1835 68.5615 50.1835 67.9819ZM43.9586 67.9819C43.9586 67.4023 44.4295 66.9314 45.0091 66.9314C45.5887 66.9314 46.0597 67.4023 46.0597 67.9819C46.0597 68.5615 45.5887 69.0324 45.0091 69.0324C44.4295 69.0324 43.9586 68.5615 43.9586 67.9819ZM37.7346 67.9819C37.7346 67.4023 38.2055 66.9314 38.7927 66.9314C39.3723 66.9314 39.8432 67.4023 39.8432 67.9819C39.8432 68.5615 39.3723 69.0324 38.7927 69.0324C38.2055 69.0324 37.7346 68.5615 37.7346 67.9819ZM31.5173 67.9819C31.5173 67.4023 31.9882 66.9314 32.5678 66.9314C33.1474 66.9314 33.6184 67.4023 33.6184 67.9819C33.6184 68.5615 33.1474 69.0324 32.5678 69.0324C31.9882 69.0324 31.5173 68.5615 31.5173 67.9819ZM25.2933 67.9819C25.2933 67.4023 25.7642 66.9314 26.3438 66.9314C26.9234 66.9314 27.3943 67.4023 27.3943 67.9819C27.3943 68.5615 26.9234 69.0324 26.3438 69.0324C25.7642 69.0324 25.2933 68.5615 25.2933 67.9819ZM19.0692 67.9819C19.0692 67.4023 19.5402 66.9314 20.1198 66.9314C20.707 66.9314 21.1779 67.4023 21.1779 67.9819C21.1779 68.5615 20.707 69.0324 20.1198 69.0324C19.5402 69.0324 19.0692 68.5615 19.0692 67.9819ZM12.8444 67.9819C12.8444 67.4023 13.3153 66.9314 13.9025 66.9314C14.4821 66.9314 14.953 67.4023 14.953 67.9819C14.953 68.5615 14.4821 69.0324 13.9025 69.0324C13.3161 69.0324 12.8444 68.5615 12.8444 67.9819Z" fill="white"/>
<path d="M249.496 13.9505C249.496 13.3557 249.978 12.873 250.573 12.873C251.167 12.873 251.651 13.3557 251.651 13.9505C251.651 14.5444 251.168 15.0271 250.573 15.0271C249.978 15.0271 249.496 14.5444 249.496 13.9505ZM242.997 13.9505C242.997 13.3557 243.48 12.873 244.081 12.873C244.676 12.873 245.159 13.3557 245.159 13.9505C245.159 14.5444 244.676 15.0271 244.081 15.0271C243.48 15.0271 242.997 14.5444 242.997 13.9505ZM236.506 13.9505C236.506 13.3557 236.989 12.873 237.59 12.873C238.184 12.873 238.667 13.3557 238.667 13.9505C238.667 14.5444 238.184 15.0271 237.59 15.0271C236.988 15.0271 236.506 14.5444 236.506 13.9505ZM230.014 13.9505C230.014 13.3557 230.497 12.873 231.091 12.873C231.693 12.873 232.168 13.3557 232.168 13.9505C232.168 14.5444 231.693 15.0271 231.091 15.0271C230.497 15.0271 230.014 14.5444 230.014 13.9505ZM223.523 13.9505C223.523 13.3557 224.006 12.873 224.6 12.873C225.194 12.873 225.678 13.3557 225.678 13.9505C225.678 14.5444 225.195 15.0271 224.6 15.0271C224.006 15.0271 223.523 14.5444 223.523 13.9505ZM217.031 13.9505C217.031 13.3557 217.514 12.873 218.108 12.873C218.702 12.873 219.186 13.3557 219.186 13.9505C219.186 14.5444 218.703 15.0271 218.108 15.0271C217.514 15.0271 217.031 14.5444 217.031 13.9505ZM210.532 13.9505C210.532 13.3557 211.015 12.873 211.616 12.873C212.211 12.873 212.694 13.3557 212.694 13.9505C212.694 14.5444 212.211 15.0271 211.616 15.0271C211.015 15.0271 210.532 14.5444 210.532 13.9505ZM204.041 13.9505C204.041 13.3557 204.524 12.873 205.125 12.873C205.719 12.873 206.202 13.3557 206.202 13.9505C206.202 14.5444 205.719 15.0271 205.125 15.0271C204.524 15.0271 204.041 14.5444 204.041 13.9505ZM197.55 13.9505C197.55 13.3557 198.033 12.873 198.628 12.873C199.229 12.873 199.704 13.3557 199.704 13.9505C199.704 14.5444 199.229 15.0271 198.628 15.0271C198.032 15.0271 197.55 14.5444 197.55 13.9505ZM191.058 13.9505C191.058 13.3557 191.541 12.873 192.136 12.873C192.73 12.873 193.213 13.3557 193.213 13.9505C193.213 14.5444 192.73 15.0271 192.136 15.0271C191.541 15.0271 191.058 14.5444 191.058 13.9505ZM184.566 13.9505C184.566 13.3557 185.049 12.873 185.644 12.873C186.238 12.873 186.721 13.3557 186.721 13.9505C186.721 14.5444 186.238 15.0271 185.644 15.0271C185.05 15.0271 184.566 14.5444 184.566 13.9505ZM178.068 13.9505C178.068 13.3557 178.55 12.873 179.152 12.873C179.747 12.873 180.229 13.3557 180.229 13.9505C180.229 14.5444 179.747 15.0271 179.152 15.0271C178.551 15.0271 178.068 14.5444 178.068 13.9505ZM171.577 13.9505C171.577 13.3557 172.06 12.873 172.662 12.873C173.255 12.873 173.738 13.3557 173.738 13.9505C173.738 14.5444 173.255 15.0271 172.662 15.0271C172.059 15.0271 171.577 14.5444 171.577 13.9505ZM165.085 13.9505C165.085 13.3557 165.568 12.873 166.163 12.873C166.764 12.873 167.24 13.3557 167.24 13.9505C167.24 14.5444 166.764 15.0271 166.163 15.0271C165.567 15.0271 165.085 14.5444 165.085 13.9505ZM158.593 13.9505C158.593 13.3557 159.076 12.873 159.671 12.873C160.265 12.873 160.748 13.3557 160.748 13.9505C160.748 14.5444 160.266 15.0271 159.671 15.0271C159.077 15.0271 158.593 14.5444 158.593 13.9505ZM152.102 13.9505C152.102 13.3557 152.585 12.873 153.18 12.873C153.774 12.873 154.257 13.3557 154.257 13.9505C154.257 14.5444 153.775 15.0271 153.18 15.0271C152.585 15.0271 152.102 14.5444 152.102 13.9505ZM145.604 13.9505C145.604 13.3557 146.086 12.873 146.688 12.873C147.282 12.873 147.765 13.3557 147.765 13.9505C147.765 14.5444 147.283 15.0271 146.688 15.0271C146.086 15.0271 145.604 14.5444 145.604 13.9505ZM139.112 13.9505C139.112 13.3557 139.594 12.873 140.197 12.873C140.791 12.873 141.273 13.3557 141.273 13.9505C141.273 14.5444 140.791 15.0271 140.197 15.0271C139.594 15.0271 139.112 14.5444 139.112 13.9505ZM132.621 13.9505C132.621 13.3557 133.103 12.873 133.698 12.873C134.3 12.873 134.776 13.3557 134.776 13.9505C134.776 14.5444 134.301 15.0271 133.698 15.0271C133.103 15.0271 132.621 14.5444 132.621 13.9505ZM126.13 13.9505C126.13 13.3557 126.612 12.873 127.207 12.873C127.801 12.873 128.284 13.3557 128.284 13.9505C128.284 14.5444 127.801 15.0271 127.207 15.0271C126.612 15.0271 126.13 14.5444 126.13 13.9505ZM119.638 13.9505C119.638 13.3557 120.12 12.873 120.715 12.873C121.309 12.873 121.793 13.3557 121.793 13.9505C121.793 14.5444 121.31 15.0271 120.715 15.0271C120.121 15.0271 119.638 14.5444 119.638 13.9505ZM113.139 13.9505C113.139 13.3557 113.629 12.873 114.224 12.873C114.818 12.873 115.301 13.3557 115.301 13.9505C115.301 14.5444 114.818 15.0271 114.224 15.0271C113.629 15.0271 113.139 14.5444 113.139 13.9505ZM106.648 13.9505C106.648 13.3557 107.131 12.873 107.732 12.873C108.326 12.873 108.81 13.3557 108.81 13.9505C108.81 14.5444 108.327 15.0271 107.732 15.0271C107.131 15.0271 106.648 14.5444 106.648 13.9505Z" fill="white"/>
<path d="M33.4861 29.861C33.1011 30.3319 32.4726 30.7464 31.3025 30.7464C30.1567 30.7464 29.396 30.3867 29.0093 29.6967C28.8122 29.3471 28.7675 29.139 28.7675 28.353V23.0995H29.8366V27.9604C29.8366 28.5063 29.8922 29.1727 30.1129 29.4238C30.3227 29.6639 30.7077 29.8492 31.3143 29.8492C31.888 29.8492 32.3075 29.6748 32.5493 29.3572C32.7372 29.1171 32.8248 28.7144 32.8248 28.1129V23.0995H33.8846V28.2662C33.8837 29.2174 33.8281 29.4465 33.4861 29.861Z" fill="white"/>
<path d="M41.7008 30.6268L39.7042 26.6294C39.3192 25.8535 38.9216 25.0009 38.7792 24.5645L38.7118 24.5755C38.7674 25.2199 38.7893 25.9748 38.8003 26.6723L38.8449 30.6268H37.7742V23.0995H39.01L41.1271 27.2519C41.4473 27.8745 41.8221 28.8458 41.8769 29.0539L41.9426 29.0312C41.9216 28.813 41.8323 27.6226 41.8323 26.7919L41.8104 23.0995H42.8356V30.6268H41.7008Z" fill="white"/>
<path d="M47.7648 23.0995H46.6848V30.6251H47.7648V23.0995Z" fill="white"/>
<path d="M54.0301 30.6478H52.993L50.4573 23.1003H51.6266L53.0815 27.6007C53.17 27.8627 53.2904 28.2671 53.3679 28.5956C53.4235 28.8357 53.4682 29.0093 53.4892 29.1634H53.5558C53.5895 29.0101 53.6333 28.8686 53.71 28.5956C53.7984 28.289 53.886 28.0051 54.0192 27.5906L55.5078 23.1003H56.6114L54.0301 30.6478Z" fill="white"/>
<path d="M59.3788 30.6268V23.0995H63.5144L63.3712 23.9638H60.4496V26.2578H62.8969V27.1416H60.4605V29.7211H63.6366V30.6268H59.3788Z" fill="white"/>
<path d="M70.6811 30.6268C70.4613 30.1997 70.3619 30.0253 70.0527 29.5122C69.4689 28.551 69.281 28.2334 68.7418 27.6327C68.5413 27.4145 68.3762 27.3058 68.0578 27.294V30.6268H66.998V23.0995H69.1268C70.0316 23.0995 70.5598 23.3076 70.9246 23.6462C71.2658 23.9638 71.5977 24.4659 71.5977 25.198C71.5977 26.3665 70.8362 27.3058 69.5674 27.262C69.9204 27.5468 70.0965 27.7869 70.2288 27.9613C70.3829 28.1693 70.6154 28.4971 70.8699 28.8888C71.2001 29.4027 71.8185 30.3867 71.9726 30.6268H70.6811ZM69.7772 24.1045C69.5565 24.0178 69.2481 23.9638 68.8513 23.9638H68.0578V26.5847H68.7957C69.4689 26.5847 69.8429 26.4743 70.1083 26.2233C70.3391 26.0051 70.484 25.6445 70.484 25.2081C70.4832 24.6841 70.1967 24.2688 69.7772 24.1045Z" fill="white"/>
<path d="M76.89 30.7683C76.0172 30.7683 75.179 30.5501 74.441 30.1019L74.8597 29.294C75.521 29.6967 76.1495 29.9166 76.9111 29.9166C77.9035 29.9166 78.5539 29.4137 78.5539 28.6057C78.5539 27.9941 78.147 27.567 77.2969 27.3286L76.5042 27.0986C75.3559 26.7717 74.7064 26.225 74.7064 25.1542C74.7064 23.8552 75.7198 22.9706 77.2203 22.9706C78.0585 22.9706 78.874 23.2107 79.5471 23.6808L79.0728 24.423C78.3677 23.9958 77.8934 23.8333 77.2649 23.8333C76.4157 23.8333 75.8867 24.2688 75.8867 24.9697C75.8867 25.5038 76.1941 25.8096 77.0113 26.0506L77.9043 26.3126C78.9186 26.6074 79.7569 27.2629 79.7569 28.4314C79.7569 29.4785 78.8849 30.7683 76.89 30.7683Z" fill="white"/>
<path d="M84.1772 23.0995H83.0972V30.6251H84.1772V23.0995Z" fill="white"/>
<path d="M92.0407 23.9748H90.0668V30.6268H89.0196V23.9748H87.0449V23.1003H92.1519L92.0407 23.9748Z" fill="white"/>
<path d="M70.4579 44.6688H66.666V37.1431H67.7461V43.7943H70.634L70.4579 44.6688Z" fill="white"/>
<path d="M74.5059 37.1431H73.4259V44.6688H74.5059V37.1431Z" fill="white"/>
<path d="M81.8613 44.5491C81.5201 44.6359 81.0568 44.6688 80.66 44.6688H78.3441V37.1431H79.9532C81.2337 37.1431 81.5749 37.176 82.05 37.427C82.7231 37.7783 83.0753 38.3125 83.0753 39.0007C83.0753 39.7876 82.6229 40.3866 81.6962 40.6612C82.8436 40.9131 83.3954 41.6233 83.3954 42.6056C83.3946 43.6536 82.7442 44.3208 81.8613 44.5491ZM81.189 38.1052C81.0121 38.0505 80.8024 38.0286 80.4174 38.0286H79.3803V40.3217H80.5842C81.2573 40.3217 81.4881 40.2021 81.7088 39.9072C81.8512 39.7101 81.9287 39.4262 81.9287 39.176C81.9279 38.6511 81.6297 38.2366 81.189 38.1052ZM81.4098 41.261C81.2126 41.2172 80.9911 41.1962 80.6162 41.1962H79.3921V43.817H80.8917C81.5201 43.817 82.2261 43.4455 82.2261 42.4843C82.2253 41.8735 81.8841 41.3714 81.4098 41.261Z" fill="white"/>
<path d="M90.4307 44.6688C90.21 44.2433 90.1115 44.0681 89.8023 43.5542C89.2185 42.5938 89.0306 42.277 88.4897 41.6755C88.2909 41.4573 88.1258 41.3487 87.8073 41.3369V44.6688H86.7475V37.1431H88.8764C89.7812 37.1431 90.3094 37.3512 90.6734 37.6899C91.0146 38.0058 91.3465 38.5088 91.3465 39.2417C91.3465 40.4102 90.5857 41.3495 89.317 41.3057C89.67 41.5896 89.8461 41.8305 89.9783 42.0041C90.1325 42.2122 90.365 42.5399 90.6194 42.9333C90.9497 43.4472 91.568 44.4303 91.7205 44.6696L90.4307 44.6688ZM89.5276 38.1482C89.3069 38.0614 88.9986 38.0058 88.6018 38.0058H87.8082V40.6275H88.5462C89.2193 40.6275 89.5933 40.518 89.8587 40.2669C90.0895 40.0479 90.2344 39.6882 90.2344 39.2501C90.2336 38.7278 89.9463 38.3125 89.5276 38.1482Z" fill="white"/>
<path d="M17.5351 57.6964C17.0052 58.3527 16.2992 58.7133 14.9758 58.7133H13.0794V51.1868H14.8435C16.156 51.1868 16.9934 51.4825 17.6893 52.4328C18.1408 53.0554 18.3616 53.9172 18.3616 54.9551C18.3616 56.1792 18.0414 57.0739 17.5351 57.6964ZM16.6185 52.6939C16.199 52.1691 15.7584 52.0276 15.0196 52.0276H14.1586V57.8497H14.9968C15.8671 57.8497 16.4298 57.6198 16.7727 57.009C17.0473 56.5069 17.1805 55.8287 17.1805 55.0857C17.1813 54.0368 17.0718 53.2626 16.6185 52.6939Z" fill="white"/>
<path d="M21.7061 58.7124V51.1868H25.8417L25.6985 52.0495H22.776V54.3435H25.225V55.2289H22.7878V57.8068H25.9638V58.7124H21.7061Z" fill="white"/>
<path d="M36.7076 58.5928C36.3664 58.6796 35.9039 58.7124 35.5063 58.7124H33.1904V51.1868H34.8003C36.08 51.1868 36.4212 51.2197 36.8972 51.4707C37.5695 51.822 37.9224 52.3561 37.9224 53.0444C37.9224 53.8304 37.4692 54.4302 36.5425 54.704C37.6899 54.9551 38.2426 55.6661 38.2426 56.6493C38.2417 57.6964 37.5905 58.3628 36.7076 58.5928ZM36.0353 52.1489C35.8601 52.0941 35.6503 52.0722 35.2645 52.0722H34.2258V54.3645H35.4296C36.1027 54.3645 36.3336 54.2441 36.5543 53.95C36.6975 53.7529 36.775 53.4698 36.775 53.2188C36.775 52.6948 36.4768 52.2795 36.0353 52.1489ZM36.2561 55.3047C36.0589 55.2609 35.8374 55.2381 35.4625 55.2381H34.2384V57.8599H35.738C36.3673 57.8599 37.0732 57.4883 37.0732 56.5279C37.0732 55.9163 36.7312 55.4134 36.2561 55.3047Z" fill="white"/>
<path d="M45.277 58.7124C45.0572 58.2861 44.9577 58.1109 44.6486 57.5979C44.0647 56.6375 43.8769 56.3199 43.3377 55.7192C43.1372 55.501 42.9721 55.3923 42.6536 55.3805V58.7124H41.5947V51.1868H43.7244C44.6283 51.1868 45.1566 51.3949 45.5213 51.7336C45.8634 52.0495 46.1945 52.5524 46.1945 53.2837C46.1945 54.4521 45.4329 55.3932 44.1642 55.3485C44.518 55.6324 44.6932 55.8717 44.8255 56.0469C44.9813 56.255 45.2122 56.5827 45.4666 56.9761C45.7968 57.4892 46.4152 58.4732 46.5694 58.7124H45.277ZM44.3731 52.1918C44.1524 52.1051 43.844 52.0495 43.4472 52.0495H42.6536V54.6712H43.3916C44.0647 54.6712 44.4388 54.5617 44.7042 54.3106C44.9367 54.0916 45.0799 53.7318 45.0799 53.2946C45.0799 52.7715 44.7926 52.3561 44.3731 52.1918Z" fill="white"/>
<path d="M54.2559 57.9475C53.87 58.4184 53.2416 58.8329 52.0722 58.8329C50.9257 58.8329 50.1641 58.4732 49.7783 57.7832C49.5803 57.4344 49.5356 57.2272 49.5356 56.4412V51.1868H50.6064V56.0477C50.6064 56.5937 50.6603 57.26 50.8819 57.5119C51.0916 57.752 51.4766 57.9374 52.084 57.9374C52.6578 57.9374 53.0764 57.7621 53.3182 57.4445C53.5069 57.2044 53.5946 56.8017 53.5946 56.2002V51.1876H54.6527V56.3552C54.6527 57.3038 54.5979 57.5321 54.2559 57.9475Z" fill="white"/>
<path d="M61.9685 58.7124L60.2583 55.4799L58.6156 58.7124H57.3258L59.6189 54.6611L57.5903 51.1868H58.8801L60.2474 53.7428L61.549 51.1868H62.8177L60.8978 54.5945L63.2592 58.7124H61.9685Z" fill="white"/>
<path d="M66.1151 58.7124V51.1868H70.249L70.1074 52.0495H67.1841V54.3435H69.6315V55.2289H67.1951V57.8068H70.3711V58.7124H66.1151Z" fill="white"/>
<path d="M77.462 58.7124H73.6685V51.1868H74.7485V57.838H77.6373L77.462 58.7124Z" fill="white"/>
<path d="M84.1797 58.7124H80.3862V51.1868H81.4662V57.838H84.3558L84.1797 58.7124Z" fill="white"/>
<path d="M86.9691 58.7124V51.1868H91.1038L90.9606 52.0495H88.0382V54.3435H90.4863V55.2289H88.0491V57.8068H91.226V58.7124H86.9691Z" fill="white"/>
<path d="M96.3641 58.8556C95.4939 58.8556 94.6556 58.6374 93.9168 58.1893L94.3347 57.3797C94.9977 57.7832 95.6253 58.0022 96.386 58.0022C97.3801 58.0022 98.0296 57.5001 98.0296 56.6914C98.0296 56.0806 97.6219 55.6535 96.7727 55.4142L95.9791 55.1851C94.8317 54.8582 94.1813 54.3115 94.1813 53.2399C94.1813 51.9408 95.1956 51.0562 96.6944 51.0562C97.5326 51.0562 98.3498 51.2963 99.0229 51.7664L98.5477 52.5086C97.8418 52.0823 97.3675 51.9197 96.739 51.9197C95.8898 51.9197 95.3608 52.3561 95.3608 53.0554C95.3608 53.5903 95.6691 53.897 96.4863 54.1371L97.3801 54.3991C98.3944 54.6931 99.2327 55.3494 99.2327 56.5178C99.2327 57.5658 98.3599 58.8556 96.3641 58.8556Z" fill="white"/>
<path d="M94.9749 30.6268V23.1003H99.1105L98.9673 23.9638H96.0457V26.2578H98.493V27.1416H96.0558V29.7203H99.2318V30.6259L94.9749 30.6268ZM96.2108 22.7296L95.8906 22.1399L98.1071 20.6875L98.6033 21.6151L96.2108 22.7296Z" fill="white"/>
<path d="M94.9749 44.6688V37.1431H99.1097L98.9673 38.0067H96.0457V40.3006H98.4921V41.1861H96.0549V43.7631H99.2327V44.6688H94.9749Z" fill="white"/>
</svg>
