<svg width="72" height="72" viewBox="0 0 72 72" fill="none" xmlns="http://www.w3.org/2000/svg">
<circle cx="33.0698" cy="36.0156" r="20.75" fill="white"/>
<path fill-rule="evenodd" clip-rule="evenodd" d="M10.9492 35.9987C10.9492 22.2404 22.1076 11.082 35.8659 11.082C49.6242 11.082 60.7825 22.2404 60.7825 35.9987C60.7825 49.757 49.6242 60.9154 35.8659 60.9154C22.1075 60.9154 10.9492 49.757 10.9492 35.9987ZM24.1981 24.3342C25.1744 23.3579 26.7573 23.3579 27.7336 24.3342L35.8653 32.4659L43.9975 24.3338C44.9738 23.3575 46.5567 23.3575 47.533 24.3338C48.5093 25.3101 48.5093 26.893 47.533 27.8693L39.4009 36.0015L47.5326 44.1332C48.5089 45.1095 48.5089 46.6924 47.5326 47.6687C46.5563 48.645 44.9734 48.645 43.997 47.6687L35.8653 39.537L27.734 47.6683C26.7577 48.6446 25.1748 48.6446 24.1985 47.6683C23.2222 46.692 23.2222 45.1091 24.1985 44.1328L32.3298 36.0015L24.1981 27.8697C23.2217 26.8934 23.2217 25.3105 24.1981 24.3342Z" fill="#4393DE"/>
</svg>
