<svg width="25" height="24" viewBox="0 0 25 24" fill="none" xmlns="http://www.w3.org/2000/svg">
<g clip-path="url(#clip0_706_132)">
<path d="M3 8V4C3 3.46957 3.21071 2.96086 3.58579 2.58579C3.96086 2.21071 4.46957 2 5 2H9" stroke="white" stroke-width="2.4" stroke-linecap="round" stroke-linejoin="round"/>
<path d="M17 2H21C21.5304 2 22.0391 2.21071 22.4142 2.58579C22.7893 2.96086 23 3.46957 23 4V8" stroke="white" stroke-width="2.4" stroke-linecap="round" stroke-linejoin="round"/>
<path d="M23 16V20C23 20.5304 22.7893 21.0391 22.4142 21.4142C22.0391 21.7893 21.5304 22 21 22H17" stroke="white" stroke-width="2.4" stroke-linecap="round" stroke-linejoin="round"/>
<path d="M9 22H5C4.46957 22 3.96086 21.7893 3.58579 21.4142C3.21071 21.0391 3 20.5304 3 20V16" stroke="white" stroke-width="2.4" stroke-linecap="round" stroke-linejoin="round"/>
<path d="M13 15C14.6569 15 16 13.6569 16 12C16 10.3431 14.6569 9 13 9C11.3431 9 10 10.3431 10 12C10 13.6569 11.3431 15 13 15Z" stroke="white" stroke-width="2" stroke-linecap="round" stroke-linejoin="round"/>
</g>
<defs>
<clipPath id="clip0_706_132">
<rect width="24" height="24" fill="white" transform="translate(0.75)"/>
</clipPath>
</defs>
</svg>
