<svg xmlns="http://www.w3.org/2000/svg" width="24" height="24" viewBox="0 0 24 24" fill="none">
<path fill-rule="evenodd" clip-rule="evenodd" d="M13.6839 4.70046C14.0354 4.34899 14.0354 3.77914 13.6839 3.42767C13.3324 3.07619 12.7626 3.07619 12.4111 3.42767L8.91112 6.92767C8.55965 7.27914 8.55965 7.84899 8.91112 8.20046L12.4111 11.7005C12.7626 12.0519 13.3324 12.0519 13.6839 11.7005C14.0354 11.349 14.0354 10.7791 13.6839 10.4277L11.8932 8.63692H12C14.3633 8.63692 16.4833 9.22137 17.9959 10.139C19.5182 11.0624 20.351 12.2687 20.351 13.5065C20.351 14.7443 19.5182 15.9506 17.9959 16.874C16.4833 17.7917 14.3633 18.3761 12 18.3761C9.63667 18.3761 7.51674 17.7917 6.00406 16.874C4.48185 15.9506 3.64899 14.7443 3.64899 13.5065C3.64899 12.4588 4.27392 11.3642 5.55757 10.4473L5.56671 10.4407L5.57555 10.4338C5.79308 10.2632 5.93646 10.0152 5.97588 9.7416C6.0153 9.46795 5.94772 9.18964 5.7872 8.96454C5.62668 8.73944 5.38557 8.58488 5.11401 8.533C4.84245 8.48111 4.56134 8.5359 4.32914 8.68597L4.31965 8.6921L4.31045 8.69866C2.53827 9.96102 1.5 11.6649 1.5 13.5065C1.5 15.5296 2.76085 17.2963 4.65881 18.5333C6.56161 19.7735 9.15948 20.5251 12 20.5251C14.8405 20.5251 17.4384 19.7735 19.3412 18.5333C21.2391 17.2963 22.5 15.5296 22.5 13.5065C22.5 11.4835 21.2391 9.71676 19.3412 8.47972C17.4384 7.23953 14.8405 6.48794 12 6.48794H11.8964L13.6839 4.70046Z" fill="white"/>
</svg>