<svg width="49" height="48" viewBox="0 0 49 48" fill="none" xmlns="http://www.w3.org/2000/svg">
<rect x="5.75586" y="7.15625" width="33.5" height="33.5" rx="16.75" fill="white"/>
<path d="M24.3574 47.8125C21.0918 47.8125 18.0137 47.1875 15.123 45.9375C12.248 44.6875 9.70898 42.9609 7.50586 40.7578C5.30273 38.5547 3.57617 36.0156 2.32617 33.1406C1.07617 30.25 0.451172 27.1719 0.451172 23.9062C0.451172 20.6406 1.07617 17.5703 2.32617 14.6953C3.57617 11.8047 5.29492 9.25781 7.48242 7.05469C9.68555 4.85156 12.2246 3.125 15.0996 1.875C17.9902 0.625 21.0684 0 24.334 0C27.5996 0 30.6777 0.625 33.5684 1.875C36.459 3.125 39.0059 4.85156 41.209 7.05469C43.4121 9.25781 45.1387 11.8047 46.3887 14.6953C47.6387 17.5703 48.2637 20.6406 48.2637 23.9062C48.2637 27.1719 47.6387 30.25 46.3887 33.1406C45.1387 36.0156 43.4121 38.5547 41.209 40.7578C39.0059 42.9609 36.459 44.6875 33.5684 45.9375C30.6934 47.1875 27.623 47.8125 24.3574 47.8125ZM20.1387 37.4531H29.959C30.459 37.4531 30.8809 37.2969 31.2246 36.9844C31.5684 36.6562 31.7402 36.2422 31.7402 35.7422C31.7402 35.2734 31.5684 34.875 31.2246 34.5469C30.8809 34.2031 30.459 34.0312 29.959 34.0312H26.9824V21.7734C26.9824 21.1172 26.8184 20.5859 26.4902 20.1797C26.1777 19.7734 25.709 19.5703 25.084 19.5703H20.5371C20.0527 19.5703 19.6387 19.7422 19.2949 20.0859C18.9512 20.4141 18.7793 20.8125 18.7793 21.2812C18.7793 21.7812 18.9512 22.1953 19.2949 22.5234C19.6387 22.8359 20.0527 22.9922 20.5371 22.9922H23.1152V34.0312H20.1387C19.6387 34.0312 19.2168 34.2031 18.873 34.5469C18.5293 34.875 18.3574 35.2734 18.3574 35.7422C18.3574 36.2422 18.5293 36.6562 18.873 36.9844C19.2168 37.2969 19.6387 37.4531 20.1387 37.4531ZM24.1465 15.5625C25.0371 15.5625 25.7793 15.2578 26.373 14.6484C26.9824 14.0234 27.2871 13.2734 27.2871 12.3984C27.2871 11.5078 26.9824 10.7578 26.373 10.1484C25.7793 9.52344 25.0371 9.21094 24.1465 9.21094C23.2715 9.21094 22.5215 9.52344 21.8965 10.1484C21.2871 10.7578 20.9824 11.5078 20.9824 12.3984C20.9824 13.2734 21.2871 14.0234 21.8965 14.6484C22.5215 15.2578 23.2715 15.5625 24.1465 15.5625Z" fill="#4393DE"/>
</svg>
