<svg width="1920" height="1080" viewBox="0 0 1920 1080" fill="none" xmlns="http://www.w3.org/2000/svg">
<g clip-path="url(#clip0_1047_4783)">
<rect width="1920" height="1080" fill="#183E91"/>
<rect opacity="0.5" x="-36" y="381" width="1963.8" height="722" fill="url(#paint0_radial_1047_4783)"/>
<rect opacity="0.5" x="1927.8" y="381" width="1963.8" height="722" transform="rotate(-180 1927.8 381)" fill="url(#paint1_radial_1047_4783)"/>
<path opacity="0.5" fill-rule="evenodd" clip-rule="evenodd" d="M877.614 344.18H826.197V348.336H821.522V380.971H882.323V348.336H877.614V344.18Z" fill="#183E91"/>
<g opacity="0.5">
<mask id="path-4-inside-1_1047_4783" fill="white">
<path fill-rule="evenodd" clip-rule="evenodd" d="M1288.79 318.72V320.278H1288.94V318.728C1289.99 318.787 1291.02 318.871 1291.58 318.924L1291.59 318.924L1293.09 319.028C1293.09 319.044 1293.09 319.06 1293.09 319.076C1293.09 319.374 1293.16 319.653 1293.27 319.896C1293.06 319.804 1292.83 319.754 1292.58 319.754C1291.8 319.754 1291.13 320.274 1290.88 321.002C1289.77 320.925 1288.66 320.879 1287.62 320.879C1287.34 320.879 1287.05 320.881 1286.76 320.885C1286.54 320.101 1285.85 319.527 1285.02 319.527C1284.81 319.527 1284.61 319.565 1284.43 319.634V318.74C1285.37 318.695 1286.29 318.662 1286.94 318.662C1287.34 318.662 1287.79 318.675 1288.26 318.695V319.638H1288.41V318.701C1288.53 318.707 1288.66 318.713 1288.79 318.72ZM1294.55 320.766C1294.41 320.766 1294.28 320.744 1294.15 320.703C1294.25 320.893 1294.33 321.104 1294.36 321.328C1296.02 321.519 1297.6 321.748 1298.97 321.966V314.562H1299.12V321.99C1300.17 322.158 1301.08 322.319 1301.8 322.449C1301.92 322.019 1302.14 321.683 1302.41 321.518C1302.38 321.499 1302.35 321.477 1302.32 321.453C1301.53 321.262 1300.55 320.823 1300.55 320.013C1300.94 319.362 1301.83 318.059 1302.28 318.059L1302.29 318.059C1302.3 318.059 1302.3 318.059 1302.3 318.06C1302.45 317.939 1302.62 317.871 1302.79 317.871C1303.4 317.871 1303.9 318.713 1303.9 319.751C1303.9 320.564 1303.59 321.256 1303.17 321.518C1303.59 321.781 1303.9 322.473 1303.9 323.286C1303.9 323.417 1303.89 323.545 1303.87 323.669L1305.06 325.992V326.894C1305.06 326.894 1304 328.08 1301.6 328.006L1305.21 329.751V331.781L1293.43 336.183L1294.24 380.999H1280.1L1280.54 336.189L1268.82 331.33V329.751L1271.83 327.726L1269.01 326.894L1268.6 325.616L1271.28 322.036L1271.21 321.312H1270.8V321.303C1270.78 321.307 1270.76 321.309 1270.74 321.309C1270.39 321.309 1270.1 320.611 1270.1 319.75C1270.1 318.889 1270.39 318.191 1270.74 318.191C1270.92 318.191 1271.08 318.369 1271.19 318.655L1272.81 320.072L1272.94 320.867C1273 320.829 1273.07 320.796 1273.14 320.769C1273.33 319.925 1274.09 319.293 1275 319.293C1275.09 319.293 1275.17 319.298 1275.25 319.309V310.766H1275.4V319.334C1276.26 319.516 1276.91 320.27 1276.91 321.173C1276.91 321.266 1276.9 321.359 1276.89 321.449C1278.82 321.28 1281.06 321.11 1283.26 321.001C1283.39 320.419 1283.77 319.939 1284.27 319.697V318.747C1284.01 318.76 1283.75 318.774 1283.49 318.788C1283.59 318.93 1283.64 319.105 1283.64 319.294C1283.64 319.767 1283.28 320.151 1282.82 320.151C1282.37 320.151 1282 319.767 1282 319.294C1282 319.139 1282.04 318.994 1282.11 318.868C1281.78 318.889 1281.48 318.908 1281.24 318.925L1281.21 318.475C1281.56 318.451 1282.04 318.42 1282.57 318.388C1282.4 318.245 1282.28 318.008 1282.28 317.74C1282.28 317.303 1282.59 316.949 1282.96 316.949C1283.34 316.949 1283.64 317.303 1283.64 317.74C1283.64 317.98 1283.55 318.196 1283.41 318.341C1283.69 318.325 1283.98 318.31 1284.27 318.296V310.879H1284.43V318.288C1285.36 318.244 1286.29 318.211 1286.94 318.211C1287.34 318.211 1287.79 318.223 1288.26 318.243V313.66H1288.41V318.25C1288.53 318.255 1288.66 318.262 1288.79 318.268V309H1288.94V318.276C1290.01 318.336 1291.06 318.421 1291.62 318.475L1293.15 318.58C1293.25 318.2 1293.47 317.876 1293.75 317.663V313.66H1293.9V317.562C1294.05 317.476 1294.21 317.418 1294.39 317.397V313.359H1294.54V317.387L1294.55 317.387C1295 317.387 1295.4 317.624 1295.67 317.997V313.438H1295.82V318.251C1295.89 318.412 1295.95 318.588 1295.98 318.775L1297.07 318.851L1297.04 319.301L1296 319.229C1295.98 319.471 1295.91 319.699 1295.82 319.901V321.069H1295.67V320.155C1295.4 320.529 1295 320.766 1294.55 320.766ZM1297.73 319.258C1298.15 319.271 1298.48 319.666 1298.48 320.151C1298.48 320.644 1298.14 321.044 1297.71 321.044C1297.29 321.044 1296.94 320.644 1296.94 320.151C1296.94 319.709 1297.22 319.342 1297.58 319.27V315.918H1297.73V319.258ZM1290.99 317.524C1291.26 317.524 1291.48 317.268 1291.48 316.952C1291.48 316.635 1291.26 316.379 1290.99 316.379C1290.72 316.379 1290.5 316.635 1290.5 316.952C1290.5 317.268 1290.72 317.524 1290.99 317.524Z"/>
</mask>
<path fill-rule="evenodd" clip-rule="evenodd" d="M1288.79 318.72V320.278H1288.94V318.728C1289.99 318.787 1291.02 318.871 1291.58 318.924L1291.59 318.924L1293.09 319.028C1293.09 319.044 1293.09 319.06 1293.09 319.076C1293.09 319.374 1293.16 319.653 1293.27 319.896C1293.06 319.804 1292.83 319.754 1292.58 319.754C1291.8 319.754 1291.13 320.274 1290.88 321.002C1289.77 320.925 1288.66 320.879 1287.62 320.879C1287.34 320.879 1287.05 320.881 1286.76 320.885C1286.54 320.101 1285.85 319.527 1285.02 319.527C1284.81 319.527 1284.61 319.565 1284.43 319.634V318.74C1285.37 318.695 1286.29 318.662 1286.94 318.662C1287.34 318.662 1287.79 318.675 1288.26 318.695V319.638H1288.41V318.701C1288.53 318.707 1288.66 318.713 1288.79 318.72ZM1294.55 320.766C1294.41 320.766 1294.28 320.744 1294.15 320.703C1294.25 320.893 1294.33 321.104 1294.36 321.328C1296.02 321.519 1297.6 321.748 1298.97 321.966V314.562H1299.12V321.99C1300.17 322.158 1301.08 322.319 1301.8 322.449C1301.92 322.019 1302.14 321.683 1302.41 321.518C1302.38 321.499 1302.35 321.477 1302.32 321.453C1301.53 321.262 1300.55 320.823 1300.55 320.013C1300.94 319.362 1301.83 318.059 1302.28 318.059L1302.29 318.059C1302.3 318.059 1302.3 318.059 1302.3 318.06C1302.45 317.939 1302.62 317.871 1302.79 317.871C1303.4 317.871 1303.9 318.713 1303.9 319.751C1303.9 320.564 1303.59 321.256 1303.17 321.518C1303.59 321.781 1303.9 322.473 1303.9 323.286C1303.9 323.417 1303.89 323.545 1303.87 323.669L1305.06 325.992V326.894C1305.06 326.894 1304 328.08 1301.6 328.006L1305.21 329.751V331.781L1293.43 336.183L1294.24 380.999H1280.1L1280.54 336.189L1268.82 331.33V329.751L1271.83 327.726L1269.01 326.894L1268.6 325.616L1271.28 322.036L1271.21 321.312H1270.8V321.303C1270.78 321.307 1270.76 321.309 1270.74 321.309C1270.39 321.309 1270.1 320.611 1270.1 319.75C1270.1 318.889 1270.39 318.191 1270.74 318.191C1270.92 318.191 1271.08 318.369 1271.19 318.655L1272.81 320.072L1272.94 320.867C1273 320.829 1273.07 320.796 1273.14 320.769C1273.33 319.925 1274.09 319.293 1275 319.293C1275.09 319.293 1275.17 319.298 1275.25 319.309V310.766H1275.4V319.334C1276.26 319.516 1276.91 320.27 1276.91 321.173C1276.91 321.266 1276.9 321.359 1276.89 321.449C1278.82 321.28 1281.06 321.11 1283.26 321.001C1283.39 320.419 1283.77 319.939 1284.27 319.697V318.747C1284.01 318.76 1283.75 318.774 1283.49 318.788C1283.59 318.93 1283.64 319.105 1283.64 319.294C1283.64 319.767 1283.28 320.151 1282.82 320.151C1282.37 320.151 1282 319.767 1282 319.294C1282 319.139 1282.04 318.994 1282.11 318.868C1281.78 318.889 1281.48 318.908 1281.24 318.925L1281.21 318.475C1281.56 318.451 1282.04 318.42 1282.57 318.388C1282.4 318.245 1282.28 318.008 1282.28 317.74C1282.28 317.303 1282.59 316.949 1282.96 316.949C1283.34 316.949 1283.64 317.303 1283.64 317.74C1283.64 317.98 1283.55 318.196 1283.41 318.341C1283.69 318.325 1283.98 318.31 1284.27 318.296V310.879H1284.43V318.288C1285.36 318.244 1286.29 318.211 1286.94 318.211C1287.34 318.211 1287.79 318.223 1288.26 318.243V313.66H1288.41V318.25C1288.53 318.255 1288.66 318.262 1288.79 318.268V309H1288.94V318.276C1290.01 318.336 1291.06 318.421 1291.62 318.475L1293.15 318.58C1293.25 318.2 1293.47 317.876 1293.75 317.663V313.66H1293.9V317.562C1294.05 317.476 1294.21 317.418 1294.39 317.397V313.359H1294.54V317.387L1294.55 317.387C1295 317.387 1295.4 317.624 1295.67 317.997V313.438H1295.82V318.251C1295.89 318.412 1295.95 318.588 1295.98 318.775L1297.07 318.851L1297.04 319.301L1296 319.229C1295.98 319.471 1295.91 319.699 1295.82 319.901V321.069H1295.67V320.155C1295.4 320.529 1295 320.766 1294.55 320.766ZM1297.73 319.258C1298.15 319.271 1298.48 319.666 1298.48 320.151C1298.48 320.644 1298.14 321.044 1297.71 321.044C1297.29 321.044 1296.94 320.644 1296.94 320.151C1296.94 319.709 1297.22 319.342 1297.58 319.27V315.918H1297.73V319.258ZM1290.99 317.524C1291.26 317.524 1291.48 317.268 1291.48 316.952C1291.48 316.635 1291.26 316.379 1290.99 316.379C1290.72 316.379 1290.5 316.635 1290.5 316.952C1290.5 317.268 1290.72 317.524 1290.99 317.524Z" fill="#183E91"/>
<path d="M1288.79 320.278H1287.79V321.278H1288.79V320.278ZM1288.79 318.72H1289.79V317.772L1288.84 317.721L1288.79 318.72ZM1288.94 320.278V321.278H1289.94V320.278H1288.94ZM1288.94 318.728L1288.99 317.73L1287.94 317.671V318.728H1288.94ZM1291.58 318.924L1291.49 319.92L1291.49 319.92L1291.58 318.924ZM1291.59 318.924L1291.49 319.92L1291.5 319.921L1291.52 319.922L1291.59 318.924ZM1293.09 319.028L1294.09 319.052L1294.11 318.096L1293.16 318.031L1293.09 319.028ZM1293.27 319.896L1292.88 320.814L1295.33 321.87L1294.17 319.464L1293.27 319.896ZM1290.88 321.002L1290.81 321.999L1291.58 322.052L1291.83 321.326L1290.88 321.002ZM1287.62 320.879L1287.62 319.879L1287.62 319.879L1287.62 320.879ZM1286.76 320.885L1285.79 321.152L1286 321.895L1286.77 321.885L1286.76 320.885ZM1284.43 319.634H1283.43V321.065L1284.77 320.572L1284.43 319.634ZM1284.43 318.74L1284.38 317.741L1283.43 317.787V318.74H1284.43ZM1288.26 318.695H1289.26V317.737L1288.3 317.696L1288.26 318.695ZM1288.26 319.638H1287.26V320.638H1288.26V319.638ZM1288.41 319.638V320.638H1289.41V319.638H1288.41ZM1288.41 318.701L1288.46 317.702L1287.41 317.654V318.701H1288.41ZM1294.15 320.703L1294.46 319.753L1292.06 318.971L1293.27 321.184L1294.15 320.703ZM1294.36 321.328L1293.38 321.483L1293.49 322.234L1294.25 322.322L1294.36 321.328ZM1298.97 321.966L1298.82 322.954L1299.97 323.138V321.966H1298.97ZM1298.97 314.562V313.562H1297.97V314.562H1298.97ZM1299.12 314.562H1300.12V313.562H1299.12V314.562ZM1299.12 321.99H1298.12V322.843L1298.97 322.978L1299.12 321.99ZM1301.8 322.449L1301.62 323.432L1302.5 323.595L1302.76 322.731L1301.8 322.449ZM1302.41 321.518L1302.93 322.37L1304.32 321.519L1302.93 320.667L1302.41 321.518ZM1302.32 321.453L1302.94 320.671L1302.77 320.533L1302.55 320.481L1302.32 321.453ZM1300.55 320.013L1299.69 319.501L1299.55 319.738V320.013H1300.55ZM1302.28 318.059L1302.3 317.059L1302.29 317.059H1302.28V318.059ZM1302.29 318.059L1302.33 317.06L1302.32 317.059L1302.31 317.059L1302.29 318.059ZM1302.3 318.06L1302.21 319.055L1302.62 319.095L1302.94 318.831L1302.3 318.06ZM1303.17 321.518L1302.64 320.666L1301.26 321.518L1302.64 322.37L1303.17 321.518ZM1303.87 323.669L1302.88 323.548L1302.85 323.852L1302.98 324.124L1303.87 323.669ZM1305.06 325.992H1306.06V325.751L1305.95 325.536L1305.06 325.992ZM1305.06 326.894L1305.81 327.561L1306.06 327.276V326.894H1305.06ZM1301.6 328.006L1301.63 327.007L1301.16 328.907L1301.6 328.006ZM1305.21 329.751H1306.21V329.123L1305.65 328.85L1305.21 329.751ZM1305.21 331.781L1305.56 332.718L1306.21 332.475V331.781H1305.21ZM1293.43 336.183L1293.08 335.246L1292.41 335.494L1292.43 336.201L1293.43 336.183ZM1294.24 380.999V381.999H1295.26L1295.24 380.981L1294.24 380.999ZM1280.1 380.999L1279.1 380.989L1279.09 381.999H1280.1V380.999ZM1280.54 336.189L1281.54 336.199L1281.55 335.524L1280.92 335.265L1280.54 336.189ZM1268.82 331.33H1267.82V331.998L1268.44 332.253L1268.82 331.33ZM1268.82 329.751L1268.26 328.921L1267.82 329.218V329.751H1268.82ZM1271.83 327.726L1272.39 328.556L1274.16 327.369L1272.12 326.767L1271.83 327.726ZM1269.01 326.894L1268.06 327.202L1268.22 327.704L1268.73 327.853L1269.01 326.894ZM1268.6 325.616L1267.8 325.016L1267.49 325.43L1267.65 325.924L1268.6 325.616ZM1271.28 322.036L1272.08 322.636L1272.32 322.324L1272.28 321.936L1271.28 322.036ZM1271.21 321.312L1272.2 321.213L1272.11 320.312H1271.21V321.312ZM1270.8 321.312H1269.8V322.312H1270.8V321.312ZM1270.8 321.303H1271.8V320.068L1270.59 320.325L1270.8 321.303ZM1271.19 318.655L1270.27 319.03L1270.36 319.25L1270.53 319.406L1271.19 318.655ZM1272.81 320.072L1273.79 319.912L1273.74 319.557L1273.47 319.32L1272.81 320.072ZM1272.94 320.867L1271.95 321.026L1272.18 322.456L1273.43 321.734L1272.94 320.867ZM1273.14 320.769L1273.5 321.705L1274 321.514L1274.12 320.985L1273.14 320.769ZM1275.25 319.309L1275.12 320.301L1276.25 320.446V319.309H1275.25ZM1275.25 310.766V309.766H1274.25V310.766H1275.25ZM1275.4 310.766H1276.4V309.766H1275.4V310.766ZM1275.4 319.334H1274.4V320.145L1275.2 320.313L1275.4 319.334ZM1276.89 321.449L1275.9 321.301L1275.71 322.555L1276.97 322.445L1276.89 321.449ZM1283.26 321.001L1283.31 321.999L1284.08 321.961L1284.24 321.208L1283.26 321.001ZM1284.27 319.697L1284.71 320.6L1285.27 320.328V319.697H1284.27ZM1284.27 318.747H1285.27V317.697L1284.23 317.749L1284.27 318.747ZM1283.49 318.788L1283.43 317.79L1281.63 317.887L1282.67 319.364L1283.49 318.788ZM1282.11 318.868L1282.98 319.351L1283.86 317.757L1282.05 317.87L1282.11 318.868ZM1281.24 318.925L1280.25 318.993L1280.31 319.991L1281.31 319.922L1281.24 318.925ZM1281.21 318.475L1281.14 317.477L1280.15 317.545L1280.21 318.543L1281.21 318.475ZM1282.57 318.388L1282.63 319.386L1285.2 319.234L1283.2 317.613L1282.57 318.388ZM1283.41 318.341L1282.7 317.632L1280.84 319.482L1283.46 319.339L1283.41 318.341ZM1284.27 318.296L1284.32 319.295L1285.27 319.248V318.296H1284.27ZM1284.27 310.879V309.879H1283.27V310.879H1284.27ZM1284.43 310.879H1285.43V309.879H1284.43V310.879ZM1284.43 318.288H1283.43V319.337L1284.47 319.287L1284.43 318.288ZM1288.26 318.243L1288.22 319.242L1289.26 319.287V318.243H1288.26ZM1288.26 313.66V312.66H1287.26V313.66H1288.26ZM1288.41 313.66H1289.41V312.66H1288.41V313.66ZM1288.41 318.25H1287.41V319.205L1288.36 319.249L1288.41 318.25ZM1288.79 318.268L1288.73 319.267L1289.79 319.322V318.268H1288.79ZM1288.79 309V308H1287.79V309H1288.79ZM1288.94 309H1289.94V308H1288.94V309ZM1288.94 318.276H1287.94V319.223L1288.88 319.275L1288.94 318.276ZM1291.62 318.475L1291.53 319.47L1291.54 319.472L1291.55 319.472L1291.62 318.475ZM1293.15 318.58L1293.08 319.578L1293.91 319.635L1294.12 318.836L1293.15 318.58ZM1293.75 317.663L1294.35 318.458L1294.75 318.158V317.663H1293.75ZM1293.75 313.66V312.66H1292.75V313.66H1293.75ZM1293.9 313.66H1294.9V312.66H1293.9V313.66ZM1293.9 317.562H1292.9V319.294L1294.4 318.429L1293.9 317.562ZM1294.39 317.397L1294.51 318.389L1295.39 318.279V317.397H1294.39ZM1294.39 313.359V312.359H1293.39V313.359H1294.39ZM1294.54 313.359H1295.54V312.359H1294.54V313.359ZM1294.54 317.387H1293.54V318.39L1294.54 318.387L1294.54 317.387ZM1294.55 317.387V316.387L1294.54 316.387L1294.55 317.387ZM1295.67 317.997L1294.85 318.579L1296.67 321.113V317.997H1295.67ZM1295.67 313.438V312.438H1294.67V313.438H1295.67ZM1295.82 313.438H1296.82V312.438H1295.82V313.438ZM1295.82 318.251H1294.82V318.48L1294.92 318.686L1295.82 318.251ZM1295.98 318.775L1294.99 318.928L1295.11 319.718L1295.91 319.773L1295.98 318.775ZM1297.07 318.851L1298.07 318.919L1298.14 317.922L1297.14 317.853L1297.07 318.851ZM1297.04 319.301L1296.97 320.298L1297.97 320.367L1298.04 319.369L1297.04 319.301ZM1296 319.229L1296.06 318.231L1295.07 318.163L1295 319.152L1296 319.229ZM1295.82 319.901L1294.92 319.467L1294.82 319.673V319.901H1295.82ZM1295.82 321.069V322.069H1296.82V321.069H1295.82ZM1295.67 321.069H1294.67V322.069H1295.67V321.069ZM1295.67 320.155H1296.67V317.04L1294.85 319.573L1295.67 320.155ZM1297.73 319.258H1296.73V320.228L1297.7 320.258L1297.73 319.258ZM1297.58 319.27L1297.78 320.252L1298.58 320.093V319.27H1297.58ZM1297.58 315.918V314.918H1296.58V315.918H1297.58ZM1297.73 315.918H1298.73V314.918H1297.73V315.918ZM1289.79 320.278V318.72H1287.79V320.278H1289.79ZM1288.94 319.278H1288.79V321.278H1288.94V319.278ZM1287.94 318.728V320.278H1289.94V318.728H1287.94ZM1291.68 317.929C1291.11 317.875 1290.06 317.789 1288.99 317.73L1288.88 319.727C1289.92 319.785 1290.94 319.868 1291.49 319.92L1291.68 317.929ZM1291.68 317.929L1291.68 317.929L1291.49 319.92L1291.49 319.92L1291.68 317.929ZM1293.16 318.031L1291.65 317.927L1291.52 319.922L1293.02 320.026L1293.16 318.031ZM1294.09 319.076C1294.09 319.068 1294.09 319.06 1294.09 319.052L1292.09 319.004C1292.09 319.028 1292.09 319.052 1292.09 319.076H1294.09ZM1294.17 319.464C1294.12 319.357 1294.09 319.225 1294.09 319.076H1292.09C1292.09 319.522 1292.19 319.949 1292.37 320.328L1294.17 319.464ZM1292.58 320.754C1292.69 320.754 1292.79 320.775 1292.88 320.814L1293.67 318.978C1293.33 318.834 1292.97 318.754 1292.58 318.754V320.754ZM1291.83 321.326C1291.95 320.969 1292.26 320.754 1292.58 320.754V318.754C1291.34 318.754 1290.31 319.58 1289.94 320.678L1291.83 321.326ZM1287.62 321.879C1288.64 321.879 1289.71 321.923 1290.81 321.999L1290.95 320.004C1289.82 319.926 1288.69 319.879 1287.62 319.879L1287.62 321.879ZM1286.77 321.885C1287.06 321.881 1287.34 321.879 1287.62 321.879L1287.62 319.879C1287.33 319.879 1287.04 319.881 1286.75 319.885L1286.77 321.885ZM1285.02 320.527C1285.36 320.527 1285.69 320.766 1285.79 321.152L1287.72 320.618C1287.39 319.436 1286.33 318.527 1285.02 318.527V320.527ZM1284.77 320.572C1284.85 320.543 1284.93 320.527 1285.02 320.527V318.527C1284.69 318.527 1284.38 318.586 1284.08 318.695L1284.77 320.572ZM1283.43 318.74V319.634H1285.43V318.74H1283.43ZM1286.94 317.662C1286.26 317.662 1285.32 317.696 1284.38 317.741L1284.47 319.739C1285.41 319.694 1286.32 319.662 1286.94 319.662V317.662ZM1288.3 317.696C1287.83 317.675 1287.36 317.662 1286.94 317.662V319.662C1287.32 319.662 1287.76 319.674 1288.22 319.694L1288.3 317.696ZM1289.26 319.638V318.695H1287.26V319.638H1289.26ZM1288.41 318.638H1288.26V320.638H1288.41V318.638ZM1287.41 318.701V319.638H1289.41V318.701H1287.41ZM1288.84 317.721C1288.71 317.715 1288.58 317.708 1288.46 317.702L1288.36 319.7C1288.49 319.706 1288.61 319.712 1288.73 319.719L1288.84 317.721ZM1293.84 321.654C1294.06 321.727 1294.3 321.766 1294.55 321.766V319.766C1294.52 319.766 1294.49 319.762 1294.46 319.753L1293.84 321.654ZM1295.35 321.173C1295.3 320.834 1295.19 320.513 1295.03 320.223L1293.27 321.184C1293.32 321.274 1293.36 321.374 1293.38 321.483L1295.35 321.173ZM1299.13 320.979C1297.75 320.759 1296.15 320.528 1294.48 320.335L1294.25 322.322C1295.89 322.511 1297.46 322.738 1298.82 322.954L1299.13 320.979ZM1297.97 314.562V321.966H1299.97V314.562H1297.97ZM1299.12 313.562H1298.97V315.562H1299.12V313.562ZM1300.12 321.99V314.562H1298.12V321.99H1300.12ZM1301.98 321.465C1301.26 321.334 1300.34 321.172 1299.28 321.003L1298.97 322.978C1300 323.144 1300.91 323.303 1301.62 323.432L1301.98 321.465ZM1301.89 320.666C1301.33 321.008 1301 321.604 1300.84 322.167L1302.76 322.731C1302.79 322.597 1302.84 322.499 1302.88 322.435C1302.93 322.369 1302.95 322.36 1302.93 322.37L1301.89 320.666ZM1301.7 322.236C1301.76 322.284 1301.82 322.329 1301.89 322.37L1302.93 320.667C1302.94 320.669 1302.94 320.671 1302.94 320.671L1301.7 322.236ZM1299.55 320.013C1299.55 320.88 1300.09 321.458 1300.57 321.79C1301.06 322.121 1301.63 322.315 1302.08 322.425L1302.55 320.481C1302.22 320.4 1301.91 320.279 1301.7 320.141C1301.61 320.074 1301.57 320.025 1301.55 320.004C1301.55 319.996 1301.55 319.995 1301.55 320.001C1301.55 320.003 1301.55 320.006 1301.55 320.009C1301.55 320.012 1301.55 320.014 1301.55 320.013H1299.55ZM1302.28 317.059C1301.99 317.059 1301.76 317.158 1301.62 317.236C1301.46 317.319 1301.33 317.422 1301.22 317.516C1301 317.705 1300.79 317.941 1300.61 318.165C1300.25 318.619 1299.9 319.149 1299.69 319.501L1301.41 320.526C1301.59 320.226 1301.88 319.779 1302.17 319.418C1302.32 319.235 1302.44 319.104 1302.53 319.029C1302.57 318.991 1302.59 318.986 1302.57 318.996C1302.56 319 1302.46 319.059 1302.28 319.059V317.059ZM1302.31 317.059L1302.3 317.059L1302.26 319.058L1302.27 319.059L1302.31 317.059ZM1302.4 317.064C1302.38 317.062 1302.36 317.061 1302.33 317.06L1302.25 319.058C1302.23 319.057 1302.22 319.056 1302.21 319.055L1302.4 317.064ZM1302.79 316.871C1302.34 316.871 1301.96 317.049 1301.67 317.288L1302.94 318.831C1302.94 318.829 1302.93 318.839 1302.9 318.85C1302.87 318.862 1302.83 318.871 1302.79 318.871V316.871ZM1304.9 319.751C1304.9 319.085 1304.74 318.433 1304.43 317.913C1304.14 317.417 1303.59 316.871 1302.79 316.871V318.871C1302.6 318.871 1302.6 318.746 1302.71 318.93C1302.81 319.091 1302.9 319.379 1302.9 319.751H1304.9ZM1303.69 322.37C1304.14 322.096 1304.43 321.658 1304.61 321.229C1304.8 320.787 1304.9 320.277 1304.9 319.751H1302.9C1302.9 320.037 1302.84 320.28 1302.77 320.453C1302.69 320.639 1302.62 320.679 1302.64 320.666L1303.69 322.37ZM1304.9 323.286C1304.9 322.759 1304.8 322.25 1304.61 321.808C1304.43 321.379 1304.14 320.941 1303.69 320.667L1302.64 322.37C1302.62 322.358 1302.69 322.398 1302.77 322.584C1302.84 322.757 1302.9 323 1302.9 323.286H1304.9ZM1304.87 323.79C1304.89 323.626 1304.9 323.457 1304.9 323.286H1302.9C1302.9 323.377 1302.89 323.465 1302.88 323.548L1304.87 323.79ZM1305.95 325.536L1304.77 323.213L1302.98 324.124L1304.17 326.447L1305.95 325.536ZM1306.06 326.894V325.992H1304.06V326.894H1306.06ZM1301.57 329.006C1302.95 329.048 1303.98 328.728 1304.68 328.369C1305.04 328.191 1305.3 328.007 1305.49 327.858C1305.58 327.784 1305.65 327.718 1305.7 327.667C1305.73 327.641 1305.75 327.619 1305.77 327.601C1305.78 327.592 1305.79 327.585 1305.79 327.578C1305.8 327.574 1305.8 327.571 1305.8 327.568C1305.8 327.567 1305.8 327.566 1305.81 327.564C1305.81 327.564 1305.81 327.563 1305.81 327.562C1305.81 327.562 1305.81 327.562 1305.81 327.562C1305.81 327.561 1305.81 327.561 1305.06 326.894C1304.32 326.227 1304.32 326.227 1304.32 326.226C1304.32 326.226 1304.32 326.226 1304.32 326.226C1304.32 326.225 1304.32 326.224 1304.32 326.224C1304.32 326.223 1304.32 326.222 1304.32 326.221C1304.33 326.22 1304.33 326.218 1304.33 326.217C1304.33 326.215 1304.33 326.213 1304.33 326.213C1304.33 326.213 1304.33 326.216 1304.32 326.223C1304.31 326.236 1304.28 326.263 1304.23 326.298C1304.15 326.37 1303.99 326.477 1303.78 326.586C1303.35 326.802 1302.65 327.038 1301.63 327.007L1301.57 329.006ZM1305.65 328.85L1302.03 327.106L1301.16 328.907L1304.78 330.651L1305.65 328.85ZM1306.21 331.781V329.751H1304.21V331.781H1306.21ZM1293.78 337.12L1305.56 332.718L1304.86 330.844L1293.08 335.246L1293.78 337.12ZM1295.24 380.981L1294.43 336.165L1292.43 336.201L1293.24 381.017L1295.24 380.981ZM1280.1 381.999H1294.24V379.999H1280.1V381.999ZM1279.54 336.179L1279.1 380.989L1281.1 381.009L1281.54 336.199L1279.54 336.179ZM1268.44 332.253L1280.16 337.113L1280.92 335.265L1269.2 330.406L1268.44 332.253ZM1267.82 329.751V331.33H1269.82V329.751H1267.82ZM1271.28 326.896L1268.26 328.921L1269.38 330.581L1272.39 328.556L1271.28 326.896ZM1268.73 327.853L1271.55 328.685L1272.12 326.767L1269.29 325.935L1268.73 327.853ZM1267.65 325.924L1268.06 327.202L1269.96 326.586L1269.55 325.308L1267.65 325.924ZM1270.48 321.436L1267.8 325.016L1269.4 326.216L1272.08 322.636L1270.48 321.436ZM1270.21 321.412L1270.29 322.135L1272.28 321.936L1272.2 321.213L1270.21 321.412ZM1270.8 322.312H1271.21V320.312H1270.8V322.312ZM1269.8 321.303V321.312H1271.8V321.303H1269.8ZM1270.59 320.325C1270.64 320.315 1270.69 320.309 1270.74 320.309V322.309C1270.83 322.309 1270.92 322.299 1271 322.281L1270.59 320.325ZM1270.74 320.309C1271.01 320.309 1271.17 320.445 1271.21 320.49C1271.25 320.533 1271.24 320.543 1271.21 320.473C1271.16 320.338 1271.1 320.083 1271.1 319.75H1269.1C1269.1 320.278 1269.19 320.802 1269.36 321.232C1269.45 321.444 1269.58 321.682 1269.77 321.882C1269.97 322.086 1270.3 322.309 1270.74 322.309V320.309ZM1271.1 319.75C1271.1 319.417 1271.16 319.162 1271.21 319.027C1271.24 318.958 1271.25 318.967 1271.21 319.01C1271.17 319.056 1271.01 319.191 1270.74 319.191V317.191C1270.3 317.191 1269.97 317.414 1269.77 317.618C1269.58 317.818 1269.45 318.056 1269.36 318.269C1269.19 318.698 1269.1 319.222 1269.1 319.75H1271.1ZM1270.74 319.191C1270.47 319.191 1270.31 319.054 1270.27 319.009C1270.23 318.967 1270.24 318.958 1270.27 319.03L1272.12 318.279C1272.03 318.065 1271.91 317.825 1271.71 317.623C1271.51 317.418 1271.19 317.191 1270.74 317.191V319.191ZM1273.47 319.32L1271.85 317.903L1270.53 319.406L1272.15 320.823L1273.47 319.32ZM1273.92 320.708L1273.79 319.912L1271.82 320.231L1271.95 321.026L1273.92 320.708ZM1272.79 319.833C1272.67 319.88 1272.55 319.936 1272.44 320L1273.43 321.734C1273.46 321.722 1273.48 321.712 1273.5 321.705L1272.79 319.833ZM1275 318.293C1273.62 318.293 1272.45 319.253 1272.17 320.553L1274.12 320.985C1274.21 320.597 1274.56 320.293 1275 320.293V318.293ZM1275.38 318.317C1275.26 318.301 1275.13 318.293 1275 318.293V320.293C1275.04 320.293 1275.08 320.296 1275.12 320.301L1275.38 318.317ZM1274.25 310.766V319.309H1276.25V310.766H1274.25ZM1275.4 309.766H1275.25V311.766H1275.4V309.766ZM1276.4 319.334V310.766H1274.4V319.334H1276.4ZM1277.91 321.173C1277.91 319.779 1276.91 318.631 1275.61 318.356L1275.2 320.313C1275.61 320.4 1275.91 320.761 1275.91 321.173H1277.91ZM1277.87 321.596C1277.89 321.457 1277.91 321.316 1277.91 321.173H1275.91C1275.91 321.217 1275.9 321.26 1275.9 321.301L1277.87 321.596ZM1283.21 320.002C1280.99 320.112 1278.74 320.283 1276.8 320.452L1276.97 322.445C1278.9 322.277 1281.12 322.108 1283.31 321.999L1283.21 320.002ZM1283.84 318.794C1283.05 319.173 1282.47 319.914 1282.28 320.794L1284.24 321.208C1284.3 320.925 1284.48 320.705 1284.71 320.6L1283.84 318.794ZM1283.27 318.747V319.697H1285.27V318.747H1283.27ZM1283.54 319.787C1283.8 319.773 1284.06 319.759 1284.32 319.746L1284.23 317.749C1283.96 317.762 1283.69 317.775 1283.43 317.79L1283.54 319.787ZM1284.64 319.294C1284.64 318.895 1284.52 318.52 1284.3 318.212L1282.67 319.364C1282.65 319.34 1282.64 319.315 1282.64 319.294H1284.64ZM1282.82 321.151C1283.87 321.151 1284.64 320.281 1284.64 319.294H1282.64C1282.64 319.268 1282.66 319.235 1282.68 319.208C1282.71 319.179 1282.76 319.151 1282.82 319.151V321.151ZM1281 319.294C1281 320.281 1281.78 321.151 1282.82 321.151V319.151C1282.88 319.151 1282.93 319.179 1282.96 319.208C1282.99 319.235 1283 319.268 1283 319.294H1281ZM1281.23 318.386C1281.08 318.657 1281 318.968 1281 319.294H1283C1283 319.311 1282.99 319.331 1282.98 319.351L1281.23 318.386ZM1281.31 319.922C1281.55 319.906 1281.84 319.887 1282.17 319.866L1282.05 317.87C1281.71 317.891 1281.42 317.911 1281.17 317.927L1281.31 319.922ZM1280.21 318.543L1280.25 318.993L1282.24 318.856L1282.21 318.406L1280.21 318.543ZM1282.51 317.39C1281.97 317.422 1281.5 317.453 1281.14 317.477L1281.28 319.472C1281.63 319.449 1282.1 319.418 1282.63 319.386L1282.51 317.39ZM1281.28 317.74C1281.28 318.288 1281.52 318.818 1281.94 319.164L1283.2 317.613C1283.24 317.644 1283.26 317.675 1283.27 317.694C1283.28 317.715 1283.28 317.731 1283.28 317.74H1281.28ZM1282.96 315.949C1281.9 315.949 1281.28 316.896 1281.28 317.74H1283.28C1283.28 317.753 1283.28 317.789 1283.24 317.834C1283.2 317.881 1283.1 317.949 1282.96 317.949V315.949ZM1284.64 317.74C1284.64 316.896 1284.03 315.949 1282.96 315.949V317.949C1282.82 317.949 1282.73 317.881 1282.69 317.834C1282.65 317.789 1282.64 317.753 1282.64 317.74H1284.64ZM1284.11 319.049C1284.46 318.707 1284.64 318.233 1284.64 317.74H1282.64C1282.64 317.728 1282.65 317.684 1282.7 317.632L1284.11 319.049ZM1284.23 317.297C1283.93 317.311 1283.64 317.326 1283.35 317.342L1283.46 319.339C1283.74 319.324 1284.03 319.309 1284.32 319.295L1284.23 317.297ZM1283.27 310.879V318.296H1285.27V310.879H1283.27ZM1284.43 309.879H1284.27V311.879H1284.43V309.879ZM1285.43 318.288V310.879H1283.43V318.288H1285.43ZM1286.94 317.211C1286.26 317.211 1285.32 317.245 1284.38 317.29L1284.47 319.287C1285.41 319.243 1286.31 319.211 1286.94 319.211V317.211ZM1288.3 317.244C1287.83 317.224 1287.36 317.211 1286.94 317.211V319.211C1287.32 319.211 1287.76 319.223 1288.22 319.242L1288.3 317.244ZM1287.26 313.66V318.243H1289.26V313.66H1287.26ZM1288.41 312.66H1288.26V314.66H1288.41V312.66ZM1289.41 318.25V313.66H1287.41V318.25H1289.41ZM1288.84 317.27C1288.71 317.263 1288.58 317.257 1288.45 317.251L1288.36 319.249C1288.49 319.254 1288.61 319.26 1288.73 319.267L1288.84 317.27ZM1287.79 309V318.268H1289.79V309H1287.79ZM1288.94 308H1288.79V310H1288.94V308ZM1289.94 318.276V309H1287.94V318.276H1289.94ZM1291.72 317.479C1291.14 317.425 1290.08 317.338 1288.99 317.278L1288.88 319.275C1289.94 319.333 1290.97 319.418 1291.53 319.47L1291.72 317.479ZM1293.22 317.583L1291.69 317.477L1291.55 319.472L1293.08 319.578L1293.22 317.583ZM1293.14 316.867C1292.67 317.226 1292.34 317.746 1292.19 318.325L1294.12 318.836C1294.17 318.654 1294.26 318.527 1294.35 318.458L1293.14 316.867ZM1292.75 313.66V317.663H1294.75V313.66H1292.75ZM1293.9 312.66H1293.75V314.66H1293.9V312.66ZM1294.9 317.562V313.66H1292.9V317.562H1294.9ZM1294.26 316.404C1293.95 316.444 1293.66 316.546 1293.4 316.696L1294.4 318.429C1294.44 318.405 1294.48 318.393 1294.51 318.389L1294.26 316.404ZM1293.39 313.359V317.397H1295.39V313.359H1293.39ZM1294.54 312.359H1294.39V314.359H1294.54V312.359ZM1295.54 317.387V313.359H1293.54V317.387H1295.54ZM1294.54 316.387L1294.53 316.387L1294.54 318.387L1294.55 318.387L1294.54 316.387ZM1296.48 317.415C1296.05 316.822 1295.37 316.387 1294.55 316.387V318.387C1294.62 318.387 1294.74 318.427 1294.85 318.579L1296.48 317.415ZM1294.67 313.438V317.997H1296.67V313.438H1294.67ZM1295.82 312.438H1295.67V314.438H1295.82V312.438ZM1296.82 318.251V313.438H1294.82V318.251H1296.82ZM1296.97 318.622C1296.92 318.338 1296.84 318.067 1296.72 317.816L1294.92 318.686C1294.95 318.757 1294.98 318.838 1294.99 318.928L1296.97 318.622ZM1297.14 317.853L1296.05 317.778L1295.91 319.773L1297 319.848L1297.14 317.853ZM1298.04 319.369L1298.07 318.919L1296.07 318.782L1296.04 319.232L1298.04 319.369ZM1295.93 320.226L1296.97 320.298L1297.11 318.303L1296.06 318.231L1295.93 320.226ZM1296.72 320.336C1296.87 320.021 1296.96 319.671 1296.99 319.305L1295 319.152C1294.99 319.271 1294.96 319.378 1294.92 319.467L1296.72 320.336ZM1296.82 321.069V319.901H1294.82V321.069H1296.82ZM1295.67 322.069H1295.82V320.069H1295.67V322.069ZM1294.67 320.155V321.069H1296.67V320.155H1294.67ZM1294.55 321.766C1295.37 321.766 1296.05 321.331 1296.48 320.737L1294.85 319.573C1294.74 319.726 1294.62 319.766 1294.55 319.766V321.766ZM1299.48 320.151C1299.48 319.262 1298.85 318.292 1297.76 318.259L1297.7 320.258C1297.59 320.254 1297.52 320.198 1297.5 320.171C1297.48 320.145 1297.48 320.135 1297.48 320.151H1299.48ZM1297.71 322.044C1298.82 322.044 1299.48 321.051 1299.48 320.151H1297.48C1297.48 320.166 1297.48 320.156 1297.5 320.129C1297.52 320.101 1297.6 320.044 1297.71 320.044V322.044ZM1295.94 320.151C1295.94 321.051 1296.6 322.044 1297.71 322.044V320.044C1297.83 320.044 1297.9 320.101 1297.93 320.129C1297.95 320.156 1297.94 320.166 1297.94 320.151H1295.94ZM1297.39 318.289C1296.47 318.471 1295.94 319.328 1295.94 320.151H1297.94C1297.94 320.137 1297.95 320.144 1297.93 320.164C1297.92 320.183 1297.87 320.233 1297.78 320.252L1297.39 318.289ZM1296.58 315.918V319.27H1298.58V315.918H1296.58ZM1297.73 314.918H1297.58V316.918H1297.73V314.918ZM1298.73 319.258V315.918H1296.73V319.258H1298.73ZM1290.48 316.952C1290.48 316.879 1290.51 316.788 1290.58 316.704C1290.65 316.617 1290.8 316.524 1290.99 316.524V318.524C1291.95 318.524 1292.48 317.675 1292.48 316.952H1290.48ZM1290.99 317.379C1290.8 317.379 1290.65 317.286 1290.58 317.199C1290.51 317.115 1290.48 317.024 1290.48 316.952H1292.48C1292.48 316.228 1291.95 315.379 1290.99 315.379V317.379ZM1291.5 316.952C1291.5 317.024 1291.47 317.115 1291.4 317.199C1291.32 317.286 1291.18 317.379 1290.99 317.379V315.379C1290.03 315.379 1289.5 316.228 1289.5 316.952H1291.5ZM1290.99 316.524C1291.18 316.524 1291.32 316.617 1291.4 316.704C1291.47 316.788 1291.5 316.879 1291.5 316.952H1289.5C1289.5 317.675 1290.03 318.524 1290.99 318.524V316.524Z" fill="#183E91" mask="url(#path-4-inside-1_1047_4783)"/>
</g>
<path opacity="0.5" fill-rule="evenodd" clip-rule="evenodd" d="M908.756 245H906.506V279.391H904.374V294.902H890.799V303.25H887.742V380.998H927.522V303.25H924.44V294.902H910.89V279.391H908.756V245Z" fill="#183E91"/>
<path opacity="0.5" fill-rule="evenodd" clip-rule="evenodd" d="M931.799 306.902H965.44V309.25H968.522V380.998H928.742V309.25H931.799V306.902ZM973.799 336.902H1007.44V339.25H1010.52V381.061H970.742V339.25H973.799V336.902ZM1249.23 352.5H1221.28V354.453H1218.74V380.939H1251.78V354.453H1249.23V352.5ZM1058.51 313.023H1091.53L1095.84 324.016H1098.28V326.188H1102.52V380.968H1047.52V326.188H1051.77V324.016H1054.2L1058.51 313.023Z" fill="#183E91"/>
<path opacity="0.5" fill-rule="evenodd" clip-rule="evenodd" d="M759.235 318.687C758.311 319.421 757.199 319.93 755.983 320.131L755.98 320.293C759.919 320.8 762.962 324.166 762.962 328.243C762.962 329.951 762.427 331.535 761.516 332.836L768.518 339.344L773.431 337.763C773.407 337.53 773.394 337.294 773.394 337.054C773.394 335.748 773.766 334.528 774.409 333.495L759.235 318.687ZM774.223 340.297L770.746 341.416L771.88 342.47L774.299 340.43C774.273 340.386 774.248 340.341 774.223 340.297ZM765.622 340.276L759.656 334.73C758.6 335.498 757.349 336.014 755.992 336.191L755.951 338.478C758.013 338.855 759.771 340.098 760.837 341.816L765.622 340.276ZM761.8 344.294L767.85 342.348L769.836 344.194L765.72 347.666L761.893 346.36C761.915 346.128 761.927 345.893 761.927 345.655C761.927 345.19 761.883 344.735 761.8 344.294ZM775.639 342.077C776.785 343.104 778.284 343.744 779.932 343.793L780.693 347.5C779.917 347.781 779.198 348.181 778.557 348.677L773.447 343.926L775.639 342.077ZM786.878 337.054C786.878 339.927 785.082 342.38 782.551 343.351L783.307 347.035L783.361 347.035C787.692 347.035 791.204 350.547 791.204 354.879C791.204 357.591 789.827 359.982 787.734 361.39L794.326 381.013H788.513L783.333 362.722C781.399 362.715 779.63 362.009 778.266 360.843L760.993 374.69C761.588 375.778 761.927 377.027 761.927 378.355C761.927 379.275 761.765 380.157 761.467 380.973H747.098C746.801 380.157 746.638 379.275 746.638 378.355C746.638 376.946 747.02 375.625 747.685 374.491L730.601 360.476C729.331 361.568 727.699 362.251 725.909 362.318L720.405 381.006H715L721.208 360.925C719.25 359.541 717.972 357.259 717.972 354.68C717.972 350.458 721.395 347.035 725.617 347.035C727.426 347.035 729.09 347.664 730.399 348.716L735.797 343.865L733.775 342.118C732.562 343.164 730.981 343.797 729.253 343.797C725.427 343.797 722.326 340.695 722.326 336.869C722.326 333.043 725.427 329.941 729.253 329.941C730.905 329.941 732.421 330.519 733.612 331.484L749.059 317.295C748.205 316.122 747.701 314.676 747.701 313.113C747.701 309.185 750.886 306 754.814 306C758.743 306 761.928 309.185 761.928 313.113C761.928 314.605 761.469 315.99 760.684 317.133L775.803 331.889C776.975 330.905 778.486 330.312 780.136 330.312C783.859 330.312 786.878 333.331 786.878 337.054ZM749.405 372.469C750.135 371.863 750.98 371.391 751.903 371.089L752.701 365.021C749.949 364.278 747.923 361.765 747.923 358.778C747.923 357.477 748.308 356.266 748.969 355.251L743.242 350.301L733.179 353.557C733.233 353.923 733.261 354.298 733.261 354.68C733.261 356.039 732.906 357.316 732.283 358.423L749.405 372.469ZM732.34 351.039L740.894 348.271L737.821 345.615L732.151 350.71C732.216 350.818 732.279 350.927 732.34 351.039ZM745.605 349.537L750.404 353.686C751.005 353.215 751.69 352.849 752.434 352.613C750.483 351.997 748.885 350.583 748.025 348.754L745.605 349.537ZM747.355 346.181L743.257 347.507L739.413 344.184L741.583 342.234L747.473 344.244C747.383 344.701 747.336 345.172 747.336 345.655C747.336 345.832 747.343 346.007 747.355 346.181ZM759.334 372.618C758.698 372.057 757.968 371.601 757.171 371.275L756.242 364.973C758.909 364.177 760.854 361.704 760.854 358.778C760.854 357.526 760.498 356.358 759.883 355.368L765.698 350.463L775.586 353.837C775.54 354.178 775.517 354.526 775.517 354.879C775.517 356.308 775.9 357.648 776.568 358.803L759.334 372.618ZM768.065 348.466L771.403 345.65L776.764 350.634C776.624 350.85 776.496 351.073 776.378 351.303L768.065 348.466ZM763.353 349.663L761.16 348.915C760.244 350.745 758.58 352.137 756.57 352.69C757.271 352.941 757.916 353.31 758.481 353.773L763.353 349.663ZM738.705 341.252L737.389 342.435L735.153 340.502C735.231 340.376 735.305 340.247 735.375 340.116L738.705 341.252ZM736.146 337.574L740.967 339.22L748.26 332.666C747.42 331.398 746.93 329.878 746.93 328.243C746.93 324.371 749.675 321.141 753.324 320.391L753.33 320.072C752.304 319.854 751.361 319.416 750.551 318.808L735.038 333.056C735.761 334.15 736.181 335.46 736.181 336.869C736.181 337.107 736.169 337.343 736.146 337.574ZM743.845 340.202L748.453 341.774C749.518 340.082 751.259 338.858 753.297 338.481L753.339 336.097C752.129 335.851 751.017 335.332 750.072 334.607L743.845 340.202Z" fill="#183E91"/>
</g>
<defs>
<radialGradient id="paint0_radial_1047_4783" cx="0" cy="0" r="1" gradientUnits="userSpaceOnUse" gradientTransform="translate(984 511) rotate(89.7796) scale(520.004 1184.29)">
<stop stop-color="#4B76D4"/>
<stop offset="1" stop-color="#183E91" stop-opacity="0.05"/>
</radialGradient>
<radialGradient id="paint1_radial_1047_4783" cx="0" cy="0" r="1" gradientUnits="userSpaceOnUse" gradientTransform="translate(2935.61 381) rotate(91.057) scale(542.092 1234.59)">
<stop stop-color="#4B76D4"/>
<stop offset="1" stop-color="#183E91" stop-opacity="0.05"/>
</radialGradient>
<clipPath id="clip0_1047_4783">
<rect width="1920" height="1080" fill="white"/>
</clipPath>
</defs>
</svg>
